Persian - Arabic.sfdir
StartChar: parenleft
Encoding: 548 40 291
Width: 542
Flags: HW
LayerCount: 2
Back
SplineSet
543.2265625 340 m 0,0,1
 543.2265625 -26 543.2265625 -26 672.2265625 -355 c 0,2,3
 772.2265625 -609 772.2265625 -609 941.2265625 -756 c 1,4,-1
 912.2265625 -791 l 1,5,6
 595.2265625 -541 595.2265625 -541 465.2265625 -139 c 0,7,8
 392.2265625 87 392.2265625 87 392.2265625 340 c 0,9,10
 392.2265625 879 392.2265625 879 694.2265625 1252 c 0,11,12
 792.2265625 1373 792.2265625 1373 912.2265625 1469 c 1,13,-1
 941.2265625 1425 l 1,14,15
 726.2265625 1253 726.2265625 1253 617.2265625 873 c 0,16,17
 543.2265625 614 543.2265625 614 543.2265625 340 c 0,0,1
EndSplineSet
Fore
SplineSet
110 608.408203125 m 0
 110 209.3828125 220.469726562 -139 313.96484375 -363 c 1
 592.2265625 -363 l 1
 592.2265625 -363 362.661132812 99.19140625 362.661132812 608.408203125 c 0
 362.661132812 1114.00878906 590.834960938 1577.03417969 590.834960938 1577.03417969 c 1
 312.57421875 1577.03417969 l 1
 219.078125 1351.921875 110 1004.37402344 110 608.408203125 c 0
EndSplineSet
Colour: ff0000
EndChar
StartChar: braceleft
Encoding: 580 123 323
Width: 587
Flags: HW
LayerCount: 2
Back
SplineSet
-115.591796875 -460 m 0,0,1
 -123.591796875 -606 -123.591796875 -606 15.408203125 -760 c 1,2,3
 33.408203125 -784 33.408203125 -784 12.408203125 -807 c 1,4,5
 -10.591796875 -828 -10.591796875 -828 -35.591796875 -808 c 0,6,7
 -195.591796875 -672 -195.591796875 -672 -199.591796875 -412 c 0,8,9
 -201.591796875 -294 -201.591796875 -294 -141.591796875 -136 c 1,10,11
 -85.591796875 15 -85.591796875 15 -76.591796875 77 c 0,12,13
 -58.591796875 214 -58.591796875 214 -214.591796875 308 c 1,14,-1
 -214.591796875 372 l 1,15,16
 -57.591796875 466 -57.591796875 466 -76.591796875 603 c 0,17,18
 -85.591796875 667 -85.591796875 667 -141.591796875 816 c 0,19,20
 -200.591796875 975 -200.591796875 975 -199.591796875 1091 c 1,21,22
 -194.591796875 1352 -194.591796875 1352 -35.591796875 1487 c 0,23,24
 -10.591796875 1508 -10.591796875 1508 12.408203125 1486 c 1,25,26
 33.408203125 1462 33.408203125 1462 14.408203125 1438 c 1,27,28
 -124.591796875 1284 -124.591796875 1284 -115.591796875 1139 c 0,29,30
 -110.591796875 1060 -110.591796875 1060 -51.591796875 963 c 1,31,32
 48.408203125 794 48.408203125 794 19.408203125 606 c 1,33,34
 -9.591796875 426 -9.591796875 426 -132.591796875 340 c 1,35,36
 -9.591796875 252 -9.591796875 252 19.408203125 74 c 1,37,38
 48.408203125 -115 48.408203125 -115 -51.591796875 -283 c 0,39,40
 -110.591796875 -381 -110.591796875 -381 -115.591796875 -460 c 0,0,1
EndSplineSet
Fore
SplineSet
144.782226562 615.921875 m 6
 110 615.921875 l 5
 110 540.791992188 l 5
 144.782226562 540.791992188 l 6
 224.921875 540.791992188 240.225585938 445.0703125 242.173828125 399.991210938 c 6
 242.173828125 -1.5390625 l 6
 242.173828125 -201.330078125 404.12109375 -363 603.634765625 -363 c 6
 697.408203125 -363 l 5
 697.408203125 -218.860351562 l 5
 575.530273438 -218.860351562 494 -134.547851562 494 -29.0869140625 c 6
 494 -29.0869140625 494 306.49609375 494 307.609375 c 4
 494 511.295898438 425.26953125 568.895507812 365.443359375 578.356445312 c 5
 365.443359375 578.356445312 494 598.391601562 494 849.661132812 c 4
 494 850.774414062 494 1239.2265625 494 1239.2265625 c 6
 494 1344.6875 575.530273438 1429 697.408203125 1429 c 5
 697.408203125 1573.13964844 l 5
 603.634765625 1573.13964844 l 6
 404.12109375 1573.13964844 242.173828125 1411.19140625 242.173828125 1211.67871094 c 6
 242.173828125 756.721679688 l 6
 240.225585938 711.643554688 224.921875 615.921875 144.782226562 615.921875 c 6
210.5078125 301.930664062 m 1024
EndSplineSet
Colour: ff0000
EndChar
StartChar: guillemotright
Encoding: 575 187 318
Width: 849
Flags: HW
LayerCount: 2
Back
SplineSet
336.930664062 340 m 0,0,1
 336.930664062 561 336.930664062 561 154.930664062 706 c 0,2,3
 137.930664062 720 137.930664062 720 147.930664062 738 c 0,4,5
 157.930664062 757 157.930664062 757 182.930664062 745 c 0,6,7
 299.930664062 688 299.930664062 688 368.930664062 576 c 0,8,9
 435.930664062 467 435.930664062 467 435.930664062 340 c 0,10,11
 435.930664062 214 435.930664062 214 368.930664062 104.5 c 128,-1,12
 301.930664062 -5 301.930664062 -5 182.930664062 -65 c 0,13,14
 158.930664062 -77 158.930664062 -77 147.930664062 -58 c 0,15,16
 137.930664062 -40 137.930664062 -40 154.930664062 -26 c 0,17,18
 336.930664062 130 336.930664062 130 336.930664062 340 c 0,0,1
-21.0693359375 340 m 0,19,20
 -21.0693359375 561 -21.0693359375 561 -203.069335938 706 c 0,21,22
 -220.069335938 720 -220.069335938 720 -210.069335938 738 c 0,23,24
 -200.069335938 757 -200.069335938 757 -175.069335938 745 c 0,25,26
 -58.0693359375 688 -58.0693359375 688 10.9306640625 576 c 0,27,28
 77.9306640625 467 77.9306640625 467 77.9306640625 340 c 0,29,30
 77.9306640625 214 77.9306640625 214 10.9306640625 104.5 c 128,-1,31
 -56.0693359375 -5 -56.0693359375 -5 -175.069335938 -65 c 0,32,33
 -199.069335938 -77 -199.069335938 -77 -210.069335938 -58 c 0,34,35
 -220.069335938 -40 -220.069335938 -40 -203.069335938 -26 c 0,36,37
 -21.0693359375 130 -21.0693359375 130 -21.0693359375 340 c 0,19,20
EndSplineSet
Fore
SplineSet
579.426757812 987.547851562 m 5
 616.713867188 935.513671875 738.03515625 746.295898438 739.426757812 493.078125 c 4
 738.03515625 242.921875 621.721679688 56.208984375 581.930664062 0 c 5
 323.705078125 0 l 5
 363.49609375 56.4873046875 479.80859375 242.921875 481.200195312 493.078125 c 4
 480.086914062 746.295898438 358.487304688 935.513671875 321.200195312 987.547851562 c 5
 579.426757812 987.547851562 l 5
208.2265625 987.547851562 m 5
 245.235351562 935.513671875 366.834960938 746.295898438 368.2265625 493.078125 c 4
 366.834960938 242.921875 250.522460938 56.208984375 210.73046875 0 c 5
 -47.4951171875 0 l 5
 -7.7041015625 56.4873046875 108.609375 242.921875 110 493.078125 c 4
 108.887695312 746.295898438 -12.712890625 935.513671875 -50 987.547851562 c 5
 208.2265625 987.547851562 l 5
EndSplineSet
Colour: ff0000
EndChar
StartChar: uni0651
Encoding: 493 1617 236
Width: 498
GlyphClass: 4
Flags: HW
LayerCount: 2
Back
SplineSet
472.5390625 2014 m 0,0,1
 477.5390625 2059 477.5390625 2059 503.5390625 2057 c 0,2,3
 534.5390625 2055 534.5390625 2055 531.5390625 2014 c 0,4,5
 524.5390625 1904 524.5390625 1904 490.5390625 1830 c 0,6,7
 451.5390625 1743 451.5390625 1743 376.5390625 1737 c 0,8,9
 328.5390625 1733 328.5390625 1733 285.5390625 1786 c 1,10,11
 256.5390625 1735 256.5390625 1735 209.5390625 1710 c 0,12,13
 158.5390625 1683 158.5390625 1683 108.5390625 1703 c 0,14,15
 -11.4609375 1751 -11.4609375 1751 81.5390625 1991 c 0,16,17
 96.5390625 2028 96.5390625 2028 125.5390625 2016 c 0,18,19
 148.5390625 2006 148.5390625 2006 138.5390625 1970 c 0,20,21
 105.5390625 1851 105.5390625 1851 168.5390625 1842 c 0,22,23
 245.5390625 1832 245.5390625 1832 290.5390625 2007 c 0,24,25
 299.5390625 2041 299.5390625 2041 322.5390625 2036 c 0,26,27
 348.5390625 2030 348.5390625 2030 343.5390625 2006 c 1,28,29
 326.5390625 1901 326.5390625 1901 393.5390625 1900 c 128,-1,30
 460.5390625 1899 460.5390625 1899 472.5390625 2014 c 0,0,1
EndSplineSet
Fore
SplineSet
196.5390625 1730 m 4
 138.661132812 1730 110 1776.46875 110 1833.51269531 c 6
 110 1874.13867188 l 5
 164.260742188 1912.5390625 l 5
 164.260742188 1876.64355469 l 6
 164.260742188 1860.22558594 176.782226562 1847.14746094 192.086914062 1847.14746094 c 4
 207.391601562 1847.14746094 219.913085938 1860.50390625 219.913085938 1876.64355469 c 6
 219.913085938 1952.60839844 l 5
 270 1989.06054688 l 5
 270 1957.06054688 l 6
 270 1940.64355469 282.521484375 1927.56445312 297.826171875 1927.56445312 c 4
 313.130859375 1927.56445312 325.65234375 1940.92089844 325.65234375 1957.06054688 c 6
 325.65234375 2027.18261719 l 5
 388.260742188 2073.37402344 l 5
 388.260742188 1912.81738281 l 6
 388.260742188 1856.05175781 355.704101562 1809.58203125 302.556640625 1809.58203125 c 4
 293.65234375 1809.58203125 287.251953125 1810.6953125 281.409179688 1812.64355469 c 5
 275.565429688 1768.39941406 244.400390625 1730 196.5390625 1730 c 4
EndSplineSet
Colour: ff0000
EndChar
StartChar: uni0658
Encoding: 4865 1624 4608
Width: 306
GlyphClass: 4
Flags: HW
LayerCount: 2
Back
SplineSet
301.625976562 2067 m 0,0,1
 315.625976562 2089 315.625976562 2089 329.125976562 2088 c 128,-1,2
 342.625976562 2087 342.625976562 2087 338.625976562 2061 c 0,3,4
 317.625976562 1894 317.625976562 1894 441.625976562 1879 c 0,5,6
 481.625976562 1874 481.625976562 1874 511.625976562 1918 c 0,7,8
 533.625976562 1950 533.625976562 1950 544.625976562 1944.5 c 128,-1,9
 555.625976562 1939 555.625976562 1939 546.625976562 1906 c 1,10,11
 491.625976562 1728 491.625976562 1728 374.625976562 1727 c 0,12,13
 245.625976562 1726 245.625976562 1726 235.625976562 1852 c 1,14,15
 228.625976562 1957 228.625976562 1957 301.625976562 2067 c 0,0,1
EndSplineSet
Fore
SplineSet
157.486328125 1855.21679688 m 4
 129.938476562 1856.88671875 113.799804688 1877.20019531 110.73828125 1902.79980469 c 4
 106.008789062 1942.3125 124.9296875 1970.13867188 140.791015625 1986.27832031 c 5
 140.791015625 1986.27832031 122.704101562 1920.60839844 196.443359375 1890.55664062 c 5
 191.712890625 1867.18261719 175.016601562 1854.10449219 157.486328125 1855.21679688 c 4
EndSplineSet
Colour: ff0000
EndChar
StartChar: uni0659
Encoding: 4862 1625 4605
Width: 0
GlyphClass: 4
Flags: HW
LayerCount: 2
Back
SplineSet
270 1730 m 1,0,1
 208 1729 208 1729 248 1767 c 2,2,-1
 300 1815 l 2,3,4
 320 1833 320 1833 362 1834 c 1,5,-1
 842 1834 l 1,6,7
 904 1835 904 1835 864 1797 c 2,8,-1
 812 1749 l 2,9,10
 792 1731 792 1731 750 1730 c 1,11,-1
 270 1730 l 1,0,1
EndSplineSet
Fore
SplineSet
641.435546875 1842.6953125 m 5
 743 1730 l 5
 406.026367188 1730 l 5
 305.852539062 1842.6953125 l 5
 641.435546875 1842.6953125 l 5
EndSplineSet
Colour: ff0000
EndChar
StartChar: uni0664
Encoding: 516 1636 259
Width: 1036
Flags: HW
LayerCount: 2
Back
SplineSet
545.360351562 1110 m 0,0,1
 558.360351562 1123 558.360351562 1123 578.360351562 1123 c 0,2,3
 599.360351562 1123 599.360351562 1123 611.360351562 1109 c 128,-1,4
 623.360351562 1095 623.360351562 1095 619.360351562 1078 c 2,5,-1
 582.360351562 921 l 2,6,7
 578.360351562 905 578.360351562 905 552.360351562 895 c 0,8,9
 436.360351562 854 436.360351562 854 410.360351562 804 c 0,10,11
 393.360351562 771 393.360351562 771 432.360351562 746 c 0,12,13
 572.360351562 656 572.360351562 656 689.360351562 628 c 0,14,15
 739.360351562 616 739.360351562 616 712.360351562 555 c 2,16,-1
 676.360351562 475 l 2,17,18
 655.360351562 428 655.360351562 428 620.360351562 405 c 0,19,20
 501.360351562 325 501.360351562 325 434.360351562 246 c 0,21,22
 391.360351562 195 391.360351562 195 442.360351562 162 c 0,23,24
 613.360351562 53 613.360351562 53 797.360351562 30 c 0,25,26
 855.360351562 23 855.360351562 23 832.360351562 -31 c 2,27,-1
 773.360351562 -172 l 2,28,29
 760.360351562 -203 760.360351562 -203 726.360351562 -199 c 0,30,31
 483.360351562 -173 483.360351562 -173 305.360351562 -48 c 0,32,33
 264.360351562 -19 264.360351562 -19 285.360351562 58 c 2,34,-1
 331.360351562 227 l 2,35,36
 352.360351562 302 352.360351562 302 512.360351562 443 c 1,37,38
 402.360351562 483 402.360351562 483 289.360351562 560 c 0,39,40
 231.360351562 599 231.360351562 599 278.360351562 699 c 2,41,-1
 343.360351562 838 l 2,42,43
 404.360351562 969 404.360351562 969 545.360351562 1110 c 0,0,1
EndSplineSet
Fore
SplineSet
846.307617188 301.634765625 m 2
 926.447265625 301.913085938 l 1
 748.360351562 1 l 1
 748.360351562 1 576.672851562 -12.3486328125 385.229492188 52.478515625 c 0
 309.801757812 78.01953125 213.54296875 122.15625 186.2734375 204.799804688 c 0
 166.516601562 264.625976562 185.438476562 333.913085938 242.759765625 410.712890625 c 2
 361.577148438 572.3828125 l 1
 240.534179688 599.65234375 143.142578125 654.469726562 117.264648438 733.49609375 c 0
 98.3427734375 790.5390625 116.4296875 856.765625 170.96875 929.948242188 c 2
 335.69921875 1153.39160156 l 2
 368.954101562 1198.49804688 438.603515625 1289.49121094 618.360351562 1289.49121094 c 0
 751.369140625 1289.49121094 866.899414062 1190.67871094 866.899414062 1190.67871094 c 1
 713.021484375 984.208984375 l 1
 713.021484375 984.208984375 651.525390625 1064.06933594 546.62109375 1064.90429688 c 0
 482.064453125 1065.4609375 398.864257812 1020.10449219 402.482421875 963.061523438 c 0
 406.099609375 903.513671875 576.1171875 855.65234375 576.1171875 855.65234375 c 1
 645.125 837.84375 690.482421875 825.87890625 701.890625 792.487304688 c 0
 710.23828125 768.278320312 698.551757812 739.338867188 662.934570312 695.374023438 c 2
 502.934570312 497.80859375 l 2
 484.012695312 474.434570312 480.1171875 451.895507812 491.525390625 428.521484375 c 0
 525.1953125 358.400390625 684.638671875 301.634765625 846.307617188 301.634765625 c 2
EndSplineSet
Colour: ff0000
EndChar
StartChar: uni0665
Encoding: 517 1637 260
Width: 979
Flags: HW
LayerCount: 2
Back
SplineSet
393.020507812 818 m 1,0,1
 453.020507812 888 453.020507812 888 527.020507812 869 c 0,2,3
 663.020507812 835 663.020507812 835 761.020507812 732 c 0,4,5
 897.020507812 588 897.020507812 588 838.020507812 299 c 0,6,7
 809.020507812 155 809.020507812 155 709.020507812 79 c 128,-1,8
 609.020507812 3 609.020507812 3 454.020507812 3 c 128,-1,9
 299.020507812 3 299.020507812 3 231.020507812 66 c 128,-1,10
 163.020507812 129 163.020507812 129 163.020507812 273 c 1,11,12
 161.020507812 556 161.020507812 556 393.020507812 818 c 1,0,1
710.020507812 449 m 0,13,14
 561.020507812 618 561.020507812 618 405.020507812 605 c 1,15,16
 309.020507812 599 309.020507812 599 293.020507812 456 c 1,17,18
 281.020507812 364 281.020507812 364 325.020507812 315 c 1,19,20
 391.020507812 237 391.020507812 237 545.020507812 273 c 1,21,22
 657.020507812 298 657.020507812 298 721.020507812 358 c 1,23,24
 760.020507812 391 760.020507812 391 710.020507812 449 c 0,13,14
EndSplineSet
Fore
SplineSet
691.942382812 1162.85253906 m 0
 780.150390625 1061.00878906 868.916015625 876.521484375 869.194335938 512.556640625 c 2
 869.194335938 289.669921875 l 2
 869.194335938 130.225585938 756.220703125 0 577.020507812 0 c 2
 400.045898438 0 l 2
 266.481445312 0 198.029296875 58.4345703125 148.220703125 144.973632812 c 0
 107.59375 215.374023438 64.91796875 363.780273438 216.950195312 976.973632812 c 0
 258.689453125 1145.32128906 315.176757812 1289.49121094 451.524414062 1289.49121094 c 0
 536.672851562 1289.49121094 630.983398438 1233.23535156 691.942382812 1162.85253906 c 0
684.150390625 476.939453125 m 1
 722.829101562 637.217773438 668.846679688 786.086914062 621.541992188 836.73046875 c 0
 597.333007812 862.330078125 529.715820312 941.078125 420.081054688 941.078125 c 0
 271.211914062 941.078125 274.55078125 609.391601562 275.6640625 568.208984375 c 0
 277.0546875 523.130859375 292.637695312 476.104492188 351.907226562 476.104492188 c 2
 684.150390625 476.939453125 l 1
EndSplineSet
Colour: ff0000
EndChar
StartChar: uni0666
Encoding: 520 1638 263
Width: 1042
Flags: HW
LayerCount: 2
Back
SplineSet
97.4091796875 1069 m 2,0,1
 113.409179688 1151 113.409179688 1151 172.409179688 1066 c 1,2,3
 290.409179688 892 290.409179688 892 625.409179688 993 c 0,4,5
 679.409179688 1009 679.409179688 1009 674.409179688 959 c 0,6,7
 635.409179688 561 635.409179688 561 853.409179688 168 c 0,8,9
 882.409179688 115 882.409179688 115 873.409179688 62 c 2,10,-1
 838.409179688 -134 l 2,11,12
 820.409179688 -233 820.409179688 -233 774.409179688 -145 c 0,13,14
 560.409179688 262 560.409179688 262 576.409179688 723 c 0,15,16
 577.409179688 751 577.409179688 751 565.409179688 748 c 0,17,18
 242.409179688 665 242.409179688 665 87.4091796875 836 c 0,19,20
 58.4091796875 868 58.4091796875 868 66.4091796875 908 c 2,21,-1
 97.4091796875 1069 l 2,0,1
EndSplineSet
Fore
SplineSet
735.530273438 672.834960938 m 2
 735.530273438 539.547851562 787.565429688 389.565429688 932.5390625 263.791992188 c 1
 665.409179688 0 l 1
 535.739257812 134.400390625 463.11328125 358.400390625 468.400390625 560.974609375 c 2
 468.122070312 897.669921875 l 2
 467.287109375 897.391601562 420.817382812 876.80078125 311.4609375 876.80078125 c 0
 162.870117188 876.80078125 110 922.712890625 110 922.712890625 c 1
 110 1290.29589844 l 1
 110 1290.29589844 263.043945312 1231.58300781 413.583007812 1231.58300781 c 0
 600.017578125 1231.58300781 736.086914062 1289.4609375 736.086914062 1289.4609375 c 1
 735.530273438 672.834960938 l 2
EndSplineSet
Colour: ff0000
EndChar
StartChar: uni06F5
Encoding: 541 1781 284
Width: 1146
Flags: HW
LayerCount: 2
Back
SplineSet
443.600585938 1077 m 0,0,1
 744.600585938 794 744.600585938 794 832.600585938 617 c 0,2,3
 951.600585938 376 951.600585938 376 937.600585938 256 c 0,4,5
 898.600585938 -81 898.600585938 -81 732.600585938 -110 c 0,6,7
 609.600585938 -132 609.600585938 -132 560.600585938 -51 c 1,8,9
 465.600585938 -162 465.600585938 -162 346.600585938 -153 c 0,10,11
 138.600585938 -136 138.600585938 -136 171.600585938 186 c 0,12,13
 195.600585938 418 195.600585938 418 426.600585938 733 c 1,14,15
 403.600585938 748 403.600585938 748 379.600585938 761 c 0,16,17
 358.600585938 773 358.600585938 773 364.600585938 818 c 2,18,-1
 398.600585938 1065 l 2,19,20
 405.600585938 1113 405.600585938 1113 443.600585938 1077 c 0,0,1
476.600585938 700 m 1,21,22
 351.600585938 528 351.600585938 528 306.600585938 410 c 0,23,24
 230.600585938 213 230.600585938 213 292.600585938 142 c 0,25,26
 414.600585938 4 414.600585938 4 612.600585938 193 c 0,27,28
 631.600585938 211 631.600585938 211 645.600585938 206 c 1,29,30
 658.600585938 200 658.600585938 200 660.600585938 182 c 1,31,32
 650.600585938 166 650.600585938 166 654.600585938 146 c 1,33,34
 690.600585938 122 690.600585938 122 742.600585938 128 c 0,35,36
 813.600585938 136 813.600585938 136 844.600585938 219 c 0,37,38
 855.600585938 249 855.600585938 249 837.600585938 285 c 0,39,40
 708.600585938 539 708.600585938 539 476.600585938 700 c 1,21,22
EndSplineSet
Fore
SplineSet
720.504882812 1289.49121094 m 2
 984.852539062 1289.49121094 1036.88769531 1133.10839844 1036.88769531 940.552734375 c 2
 1036.88769531 362.852539062 l 2
 1036.88769531 163.061523438 973.72265625 0 775.600585938 0 c 0
 665.965820312 0 610.591796875 62.3310546875 588.609375 95.4443359375 c 1
 548.540039062 37.0087890625 481.478515625 -1.390625 405.235351562 -1.390625 c 0
 281.965820312 -1.390625 182.348632812 98.5048828125 182.348632812 221.49609375 c 2
 182.626953125 876.522460938 l 1
 110 876.522460938 l 1
 110 1289.49121094 l 1
 720.504882812 1289.49121094 l 2
863.53125 528.974609375 m 1
 863.53125 810.295898438 l 2
 863.53125 871.235351562 816.2265625 876.244140625 803.426757812 876.522460938 c 2
 354.313476562 876.522460938 l 1
 354.313476562 510.887695312 l 2
 354.313476562 466.087890625 390.487304688 429.913085938 435.287109375 429.913085938 c 0
 480.086914062 429.913085938 516.26171875 466.087890625 516.26171875 510.887695312 c 2
 515.705078125 632.487304688 l 1
 660.95703125 632.487304688 l 1
 660.95703125 528.974609375 l 2
 660.95703125 473.043945312 706.313476562 427.6875 762.244140625 427.6875 c 0
 818.174804688 427.6875 863.53125 473.043945312 863.53125 528.974609375 c 1
EndSplineSet
Colour: ff0000
EndChar
StartChar: u1EEB9
Encoding: 6227 126649 5970
Width: 523
Flags: HW
AnchorPoint: "DotBelow" 261.595 1080.41 mark 0
LayerCount: 2
Back
SplineSet
218.368164062 1230 m 2,0,-1
 119.368164062 1082 l 2,1,2
 114.368164062 1074 114.368164062 1074 122.368164062 1069 c 0,3,4
 250.368164062 993 250.368164062 993 264.368164062 981 c 0,5,6
 278.368164062 970 278.368164062 970 280.368164062 971 c 0,7,8
 282.368164062 971 282.368164062 971 287.368164062 977 c 1,9,-1
 384.368164062 1131 l 1,10,11
 389.368164062 1141 389.368164062 1141 381.368164062 1149 c 0,12,13
 317.368164062 1205 317.368164062 1205 236.368164062 1234 c 0,14,15
 223.368164062 1238 223.368164062 1238 218.368164062 1230 c 2,0,-1
194.368164062 1246 m 2,16,17
 213.368164062 1273 213.368164062 1273 246.368164062 1262 c 0,18,19
 340.368164062 1229 340.368164062 1229 402.368164062 1171 c 1,20,21
 428.368164062 1145 428.368164062 1145 410.368164062 1115 c 2,22,-1
 312.368164062 960 l 1,23,24
 287.368164062 925 287.368164062 925 250.368164062 954 c 0,25,26
 233.368164062 968 233.368164062 968 106.368164062 1043 c 0,27,28
 72.3681640625 1064 72.3681640625 1064 95.3681640625 1098 c 2,29,-1
 194.368164062 1246 l 2,16,17
EndSplineSet
Fore
SplineSet
110 1092 m 5
 261.594726562 1243.7734375 l 5
 413.368164062 1092 l 5
 261.594726562 940.40625 l 5
 110 1092 l 5
EndSplineSet
Colour: ff0000
EndChar
StartChar: u1EEBA
Encoding: 6228 126650 5971
Width: 523
Flags: HW
AnchorPoint: "DotBelow" 261.595 980.406 mark 0
LayerCount: 2
Back
SplineSet
229.368164062 1120 m 2,0,-1
 130.368164062 972 l 2,1,2
 125.368164062 964 125.368164062 964 133.368164062 959 c 0,3,4
 261.368164062 883 261.368164062 883 275.368164062 871 c 0,5,6
 289.368164062 860 289.368164062 860 291.368164062 861 c 0,7,8
 293.368164062 861 293.368164062 861 298.368164062 867 c 1,9,-1
 395.368164062 1021 l 1,10,11
 400.368164062 1031 400.368164062 1031 392.368164062 1039 c 0,12,13
 328.368164062 1095 328.368164062 1095 247.368164062 1124 c 0,14,15
 234.368164062 1128 234.368164062 1128 229.368164062 1120 c 2,0,-1
205.368164062 1136 m 2,16,17
 224.368164062 1163 224.368164062 1163 257.368164062 1152 c 0,18,19
 351.368164062 1119 351.368164062 1119 413.368164062 1061 c 1,20,21
 439.368164062 1035 439.368164062 1035 421.368164062 1005 c 2,22,-1
 323.368164062 850 l 1,23,24
 298.368164062 815 298.368164062 815 261.368164062 844 c 0,25,26
 244.368164062 858 244.368164062 858 117.368164062 933 c 0,27,28
 83.3681640625 954 83.3681640625 954 106.368164062 988 c 2,29,-1
 205.368164062 1136 l 2,16,17
EndSplineSet
Fore
SplineSet
110 992 m 5
 261.594726562 1143.7734375 l 5
 413.368164062 992 l 5
 261.594726562 840.40625 l 5
 110 992 l 5
EndSplineSet
Colour: ff0000
EndChar
StartChar: aAyn.fina
Encoding: 259 -1 3
Width: 1441
Flags: HW
LayerCount: 2
Back
SplineSet
1337.84277344 526 m 0,0,1
 1430.84277344 470 1430.84277344 470 1426.34277344 418 c 128,-1,2
 1421.84277344 366 1421.84277344 366 1380.34277344 324.5 c 128,-1,3
 1338.84277344 283 1338.84277344 283 1289.84277344 260 c 1,4,5
 1276.84277344 256 1276.84277344 256 1292.84277344 246 c 0,6,7
 1389.84277344 188 1389.84277344 188 1491.84277344 185 c 0,8,9
 1566.84277344 183 1566.84277344 183 1561.84277344 110 c 0,10,11
 1553.84277344 0 1553.84277344 0 1491.84277344 0 c 0,12,13
 1346.84277344 0 1346.84277344 0 1127.84277344 188 c 0,14,15
 1116.84277344 197 1116.84277344 197 1100.84277344 188 c 0,16,17
 702.842773438 -46 702.842773438 -46 687.842773438 -396 c 0,18,19
 670.842773438 -798 670.842773438 -798 1127.84277344 -914 c 1,20,21
 1386.84277344 -981 1386.84277344 -981 1963.84277344 -933 c 0,22,23
 1985.84277344 -931 1985.84277344 -931 1988.84277344 -942.5 c 128,-1,24
 1991.84277344 -954 1991.84277344 -954 1970.84277344 -968 c 0,25,26
 1903.84277344 -1013 1903.84277344 -1013 1755.84277344 -1068.5 c 128,-1,27
 1607.84277344 -1124 1607.84277344 -1124 1533.84277344 -1128 c 0,28,29
 1250.84277344 -1145 1250.84277344 -1145 1044.84277344 -1095 c 0,30,31
 541.842773438 -972 541.842773438 -972 623.842773438 -391 c 0,32,33
 673.842773438 -39 673.842773438 -39 928.842773438 210 c 0,34,35
 971.842773438 251 971.842773438 251 989.842773438 265 c 128,-1,36
 1007.84277344 279 1007.84277344 279 999.842773438 286 c 0,37,38
 946.842773438 331 946.842773438 331 869.842773438 338 c 0,39,40
 811.842773438 343 811.842773438 343 824.842773438 375 c 0,41,42
 863.842773438 472 863.842773438 472 943.842773438 523 c 0,43,44
 1138.84277344 647 1138.84277344 647 1337.84277344 526 c 0,0,1
EndSplineSet
Fore
SplineSet
1102.83496094 436.1875 m 1
 1491.84277344 436.1875 l 1
 1491.84277344 0 l 1
 1129.54785156 0 l 2
 919.739257812 0 849.895507812 219.826171875 827.634765625 334.748046875 c 1
 675.704101562 303.303710938 549.9296875 202.8515625 549.9296875 21.982421875 c 0
 549.9296875 -61.2177734375 599.182617188 -283.826171875 845.721679688 -283.826171875 c 0
 910.556640625 -283.826171875 981.791015625 -269.634765625 1053.02539062 -236.799804688 c 1
 1053.02539062 -415.721679688 l 1
 933.095703125 -503.65234375 782 -536.583007812 651.495117188 -536.583007812 c 4
 267.495117188 -536.583007812 110 -331.6875 110 -105.739257812 c 0
 110 221.495117188 432.50390625 450.50390625 751.112304688 477.7734375 c 1
 720.782226562 523.96484375 673.19921875 561.530273438 623.112304688 561.530273438 c 1
 623.112304688 728.764648438 l 1
 623.112304688 728.764648438 724.12109375 835.6171875 931.704101562 835.6171875 c 0
 1419.49511719 835.6171875 1164.05175781 495.45703125 1102.83496094 436.1875 c 1
EndSplineSet
Colour: ff0000
EndChar
StartChar: aBaa.fina
Encoding: 263 -1 7
Width: 1738
VWidth: 0
Flags: HW
LayerCount: 2
Back
SplineSet
245 520 m 0,0,1
 261 540 261 540 277 524.5 c 128,-1,2
 293 509 293 509 277 487 c 0,3,4
 204 385 204 385 220 316 c 0,5,6
 288 30 288 30 840 46 c 0,7,8
 1212 57 1212 57 1526 186 c 0,9,10
 1590 212 1590 212 1610 308 c 0,11,12
 1616 337 1616 337 1647 334 c 0,13,14
 1669 332 1669 332 1670 290 c 0,15,16
 1672 193 1672 193 1810 185 c 0,17,18
 1863 182 1863 182 1856 119 c 0,19,20
 1843 0 1843 0 1810 0 c 0,21,22
 1719 0 1719 0 1644 94 c 0,23,24
 1640 99 1640 99 1618 84 c 0,25,26
 1251 -161 1251 -161 749.5 -162 c 128,-1,27
 248 -163 248 -163 151 83 c 0,28,29
 104 203 104 203 151 332 c 128,-1,30
 198 461 198 461 245 520 c 0,0,1
EndSplineSet
Fore
SplineSet
1535.97753906 436.1796875 m 6
 1788.54492188 436.1875 l 5
 1788.54492188 0 l 5
 1711.27246094 0 l 6
 1589.45996094 0.0888671875 1487.86035156 82.9072265625 1456.20019531 194.791992188 c 5
 1424.45019531 82.9072265625 1322.76074219 0 1200.859375 0 c 6
 412.2109375 0 l 6
 245.323242188 0 110.005859375 135.31640625 110.005859375 302.205078125 c 6
 110.005859375 390.388671875 l 5
 110.005859375 390.388671875 106.0703125 648.501953125 302.204101562 754.573242188 c 5
 408.72265625 673.186523438 l 5
 408.72265625 673.186523438 319.465820312 615.321289062 319.465820312 524.811523438 c 4
 319.465820312 471.955078125 343.970703125 436.1796875 425.537109375 436.1796875 c 6
 1271.78222656 436.1796875 l 6
 1297.71875 436.1796875 1315.15917969 463.81640625 1303.08496094 486.622070312 c 4
 1254.87890625 577.66796875 1175.1015625 646.35546875 1175.1015625 646.35546875 c 5
 1402.53808594 825.227539062 l 5
 1402.53808594 825.227539062 1499.21875 697.78125 1499.21875 556.918945312 c 6
 1499.21875 478.483398438 l 6
 1499.21875 455.9453125 1515.09570312 436.178710938 1535.97753906 436.1796875 c 6
1810.80917786 197.377793906 m 1024
EndSplineSet
Colour: ff0000
EndChar
StartChar: aBaa.init
Encoding: 264 -1 8
Width: 487
Flags: HW
LayerCount: 2
Back
SplineSet
-8 433 m 2,0,-1
 50 560 l 2,1,2
 68 599 68 599 88 561 c 0,3,4
 169 412 169 412 118 201 c 0,5,6
 69 0 69 0 -130 0 c 0,7,8
 -152 0 -152 0 -173 104 c 0,9,10
 -189 187 -189 187 -130 185 c 0,11,12
 -9 180 -9 180 52 250 c 0,13,14
 55 254 55 254 53 264 c 0,15,16
 41 323 41 323 -2 383 c 0,17,18
 -20 408 -20 408 -8 433 c 2,0,-1
EndSplineSet
Fore
SplineSet
377.057617188 633.930664062 m 6
 377.862304688 267.2421875 l 6
 377.862304688 120.030273438 258.5546875 -0.0830078125 111.342773438 -0.0830078125 c 6
 -50 -0.0830078125 l 5
 -50 436.1875 l 5
 217.681640625 436.1875 l 5
 217.681640625 582.147460938 53.4775390625 723.3671875 53.4775390625 723.3671875 c 5
 280.913085938 902.239257812 l 5
 280.913085938 902.239257812 377.057617188 774.79296875 377.057617188 633.930664062 c 6
EndSplineSet
Colour: ff0000
EndChar
StartChar: aBaa.isol
Encoding: 265 -1 9
Width: 1608
Flags: HW
LayerCount: 2
Back
SplineSet
1522.74023438 761 m 0,0,1
 1580.74023438 695 1580.74023438 695 1600.74023438 576.5 c 128,-1,2
 1620.74023438 458 1620.74023438 458 1596.24023438 346.5 c 128,-1,3
 1571.74023438 235 1571.74023438 235 1514.74023438 202 c 0,4,5
 1186.74023438 11 1186.74023438 11 695.240234375 -13.5 c 128,-1,6
 203.740234375 -38 203.740234375 -38 35.740234375 170 c 0,7,8
 -73.259765625 304 -73.259765625 304 3.740234375 484 c 0,9,10
 35.740234375 559 35.740234375 559 113.740234375 644 c 0,11,12
 126.740234375 658 126.740234375 658 139.740234375 654 c 128,-1,13
 152.740234375 650 152.740234375 650 155.240234375 637 c 128,-1,14
 157.740234375 624 157.740234375 624 148.740234375 614 c 0,15,16
 111.740234375 573 111.740234375 573 90.240234375 525.5 c 128,-1,17
 68.740234375 478 68.740234375 478 78.740234375 443 c 0,18,19
 150.740234375 179 150.740234375 179 674.240234375 187 c 128,-1,20
 1197.74023438 195 1197.74023438 195 1531.74023438 388 c 1,21,22
 1524.74023438 465 1524.74023438 465 1433.74023438 583 c 0,23,24
 1427.74023438 591 1427.74023438 591 1438.24023438 638 c 128,-1,25
 1448.74023438 685 1448.74023438 685 1484.74023438 761 c 0,26,27
 1497.74023438 789 1497.74023438 789 1522.74023438 761 c 0,0,1
EndSplineSet
Fore
SplineSet
1402.1796875 825.228515625 m 5
 1402.1796875 825.228515625 1498.86035156 697.782226562 1498.95019531 557.008789062 c 6
 1498.95019531 252.478515625 l 6
 1499.04003906 113.047851562 1386.08203125 0 1246.74023438 0 c 6
 412.2109375 0 l 6
 245.322265625 0 110.005859375 135.317382812 110.005859375 302.205078125 c 6
 110.005859375 390.389648438 l 5
 110.005859375 390.389648438 106.0703125 648.502929688 302.204101562 754.57421875 c 5
 408.72265625 673.186523438 l 5
 408.72265625 673.186523438 319.46484375 615.321289062 319.46484375 524.8125 c 4
 319.46484375 471.955078125 343.970703125 436.180664062 425.537109375 436.180664062 c 6
 1271.42480469 436.180664062 l 6
 1297.36132812 436.180664062 1314.80078125 463.81640625 1302.72753906 486.623046875 c 4
 1254.43164062 577.668945312 1174.74414062 646.356445312 1174.74414062 646.356445312 c 5
 1402.1796875 825.228515625 l 5
EndSplineSet
Colour: ff0000
EndChar
StartChar: aBaa.medi_BaaBaaInit
Encoding: 358 -1 102
Width: 624
Flags: HW
LayerCount: 2
Back
SplineSet
386 157 m 1,0,1
 342 78 342 78 304 98 c 0,2,3
 296 102 296 102 242 143 c 1,4,5
 116 2 116 2 0 0 c 0,6,7
 -43 -1 -43 -1 -55 90 c 0,8,9
 -67 178 -67 178 0 186 c 0,10,11
 180 207 180 207 256 307 c 0,12,13
 277 335 277 335 309 309 c 1,14,15
 318 303 318 303 351 272 c 1,16,17
 419 214 419 214 386 157 c 1,0,1
EndSplineSet
Fore
SplineSet
422.044921875 436.1875 m 6
 674.791015625 436.1875 l 5
 674.791015625 0 l 5
 620.950195312 0 l 6
 498.959960938 0 397.270507812 82.8173828125 365.610351562 194.791992188 c 5
 333.860351562 82.9072265625 232.171875 0 110.26953125 0 c 6
 -50 0 l 5
 -50 436.1875 l 5
 176 436.1875 l 6
 222.685546875 436.204101562 238.627728185 456.482435167 238.610351562 479.19921875 c 6
 238.521484375 595.376953125 l 5
 385.286132812 595.376953125 l 5
 385.197265625 479.19921875 l 6
 385.179889002 456.482435167 400.9375 436.194335938 422.044921875 436.1875 c 6
273.395988334 298.674542423 m 1024
EndSplineSet
Colour: ff0000
EndChar
StartChar: aFaa.isol
Encoding: 271 -1 15
Width: 1675
Flags: HW
LayerCount: 2
Back
SplineSet
1490.2109375 1032 m 0,0,1
 1573.2109375 1058 1573.2109375 1058 1652.2109375 931.5 c 128,-1,2
 1731.2109375 805 1731.2109375 805 1744.2109375 576 c 0,3,4
 1749.2109375 492 1749.2109375 492 1724.2109375 434 c 0,5,6
 1670.2109375 306 1670.2109375 306 1471.7109375 203 c 128,-1,7
 1273.2109375 100 1273.2109375 100 1015.2109375 42 c 128,-1,8
 757.2109375 -16 757.2109375 -16 542.2109375 -17 c 0,9,10
 25.2109375 -20 25.2109375 -20 -9.7890625 306 c 0,11,12
 -15.7890625 362 -15.7890625 362 5.2109375 464.5 c 128,-1,13
 26.2109375 567 26.2109375 567 93.2109375 661 c 0,14,15
 103.2109375 675 103.2109375 675 116.2109375 673.5 c 128,-1,16
 129.2109375 672 129.2109375 672 133.7109375 659.5 c 128,-1,17
 138.2109375 647 138.2109375 647 130.2109375 634 c 0,18,19
 -15.7890625 399 -15.7890625 399 129.2109375 295 c 0,20,21
 342.2109375 141 342.2109375 141 803.2109375 196 c 0,22,23
 1180.2109375 241 1180.2109375 241 1558.2109375 434 c 0,24,25
 1669.2109375 490 1669.2109375 490 1685.2109375 564 c 1,26,27
 1676.2109375 614 1676.2109375 614 1632.2109375 649 c 0,28,29
 1628.2109375 653 1628.2109375 653 1621.2109375 640 c 0,30,31
 1565.2109375 532 1565.2109375 532 1481.2109375 520 c 0,32,33
 1315.2109375 496 1315.2109375 496 1288.2109375 651 c 0,34,35
 1270.2109375 756 1270.2109375 756 1405.2109375 964 c 0,36,37
 1439.2109375 1016 1439.2109375 1016 1490.2109375 1032 c 0,0,1
1511.2109375 743 m 0,38,39
 1531.2109375 762 1531.2109375 762 1509.2109375 781 c 0,40,41
 1436.2109375 843 1436.2109375 843 1395.2109375 769 c 0,42,43
 1385.2109375 751 1385.2109375 751 1397.2109375 740 c 0,44,45
 1455.2109375 690 1455.2109375 690 1511.2109375 743 c 0,38,39
EndSplineSet
Fore
SplineSet
1235.48828125 1183.95703125 m 4
 1429.56445312 1183.95703125 1575.703125 1019.66308594 1575.79296875 790.616210938 c 6
 1575.79296875 268.309570312 l 6
 1575.79296875 158.928710938 1518.55371094 0 1342.81152344 0 c 6
 402.2109375 0 l 6
 235.323242188 0 100.005859375 135.317382812 100.005859375 302.205078125 c 6
 100.005859375 390.389648438 l 5
 100.005859375 390.389648438 96.0703125 648.502929688 292.204101562 754.57421875 c 5
 398.72265625 673.186523438 l 5
 398.72265625 673.186523438 309.465820312 615.321289062 309.465820312 524.8125 c 4
 309.465820312 471.955078125 333.970703125 436.180664062 415.537109375 436.180664062 c 6
 1367.31738281 436.180664062 l 6
 1385.91992188 436.180664062 1400.9453125 451.206054688 1400.9453125 469.80859375 c 4
 1400.9453125 488.412109375 1385.91992188 503.436523438 1367.31738281 503.436523438 c 6
 1120.02636719 503.436523438 l 6
 1025.58105469 503.436523438 948.934570312 579.994140625 948.934570312 674.528320312 c 6
 948.934570312 897.314453125 l 6
 948.934570312 1055.61621094 1023.703125 1183.95703125 1235.48828125 1183.95703125 c 4
1170.20019531 825.049804688 m 6
 1378.40722656 825.049804688 l 5
 1378.40722656 825.049804688 1244.87890625 992.563476562 1156.6953125 992.563476562 c 4
 1101.42285156 992.563476562 1076.38085938 958.219726562 1076.38085938 904.55859375 c 4
 1076.38085938 844.546875 1134.96191406 825.049804688 1170.20019531 825.049804688 c 6
EndSplineSet
Colour: ff0000
EndChar
StartChar: aFaa.medi
Encoding: 272 -1 16
Width: 988
Flags: HW
LayerCount: 2
Back
SplineSet
717.556640625 776 m 0,0,1
 729.556640625 776 729.556640625 776 737.556640625 772 c 0,2,3
 786.556640625 742 786.556640625 742 800.556640625 660 c 0,4,5
 827.556640625 503 827.556640625 503 765.556640625 367 c 0,6,7
 735.556640625 301 735.556640625 301 691.556640625 236 c 1,8,9
 818.556640625 189 818.556640625 189 913.556640625 185 c 0,10,11
 932.556640625 184 932.556640625 184 936.556640625 134 c 0,12,13
 948.556640625 3 948.556640625 3 913.556640625 0 c 0,14,15
 745.556640625 -17 745.556640625 -17 490.556640625 118 c 1,16,17
 416.556640625 82 416.556640625 82 296.056640625 41.5 c 128,-1,18
 175.556640625 1 175.556640625 1 138.556640625 0 c 0,19,20
 113.556640625 -1 113.556640625 -1 102.556640625 44.5 c 128,-1,21
 91.556640625 90 91.556640625 90 101.556640625 135.5 c 128,-1,22
 111.556640625 181 111.556640625 181 138.556640625 185 c 0,23,24
 254.556640625 202 254.556640625 202 355.556640625 237 c 1,25,26
 340.556640625 328 340.556640625 328 379.556640625 432 c 0,27,28
 442.556640625 602 442.556640625 602 610.556640625 728 c 0,29,30
 674.556640625 776 674.556640625 776 717.556640625 776 c 0,0,1
625.556640625 560 m 1,31,32
 528.556640625 568 528.556640625 568 447.556640625 455 c 1,33,34
 424.556640625 426 424.556640625 426 469.556640625 365 c 128,-1,35
 514.556640625 304 514.556640625 304 574.556640625 304 c 128,-1,36
 634.556640625 304 634.556640625 304 709.556640625 382 c 1,37,38
 714.556640625 540 714.556640625 540 625.556640625 560 c 1,31,32
EndSplineSet
Fore
SplineSet
682.556640625 436.1875 m 1
 1038.55664062 436.1875 l 1
 1038.55664062 0 l 1
 806.208007812 0 l 2
 684.051757812 0 582.486328125 82.9208984375 550.764648438 194.782226562 c 1
 466.452148438 69.8427734375 341.234375 0 207.11328125 0 c 2
 -50 0 l 1
 -50 436.1875 l 1
 122.521484375 436.1875 l 1
 108.88671875 498.240234375 93.873046875 613.975585938 157.860351562 741.286132812 c 0
 184.573242188 794.434570312 265.547851562 933.564453125 416.643554688 933.564453125 c 0
 510.6953125 933.564453125 594.161132812 873.72265625 630.069335938 843.129882812 c 0
 707.147460938 777.4609375 828.086914062 691.07421875 682.556640625 436.1875 c 1
342.904296875 440.208007812 m 1
 342.904296875 440.208007812 550.208007812 462.190429688 550.208007812 519.791015625 c 0
 550.208007812 586.573242188 425.26953125 678.399414062 327.877929688 678.399414062 c 0
 264.434570312 678.399414062 238.556640625 655.025390625 238.556640625 622.46875 c 0
 238.556640625 531.19921875 342.904296875 440.208007812 342.904296875 440.208007812 c 1
EndSplineSet
Colour: ff0000
EndChar
StartChar: aHaa.medi
Encoding: 276 -1 20
Width: 1250
Flags: HW
LayerCount: 2
Back
SplineSet
162.487304688 639 m 0,0,1
 209.487304688 642 209.487304688 642 460.487304688 541 c 0,2,3
 589.487304688 489 589.487304688 489 764.487304688 463 c 128,-1,4
 939.487304688 437 939.487304688 437 1097.48730469 459 c 0,5,6
 1126.48730469 463 1126.48730469 463 1118.48730469 429 c 0,7,8
 1097.48730469 339 1097.48730469 339 1074.48730469 284 c 0,9,10
 1068.48730469 269 1068.48730469 269 1050.48730469 271 c 0,11,12
 947.487304688 279 947.487304688 279 872.487304688 281 c 1,13,14
 841.487304688 221 841.487304688 221 921.987304688 197.5 c 128,-1,15
 1002.48730469 174 1002.48730469 174 1128.48730469 185 c 0,16,17
 1211.48730469 192 1211.48730469 192 1167.48730469 46 c 0,18,19
 1154.48730469 3 1154.48730469 3 1128.48730469 0 c 0,20,21
 972.487304688 -20 972.487304688 -20 872.487304688 14 c 0,22,23
 735.487304688 62 735.487304688 62 786.487304688 240 c 0,24,25
 794.487304688 268 794.487304688 268 796.487304688 277 c 1,26,27
 608.487304688 266 608.487304688 266 404.487304688 205 c 0,28,29
 320.487304688 180 320.487304688 180 140.487304688 90 c 128,-1,30
 -39.5126953125 0 -39.5126953125 0 -121.512695312 0 c 0,31,32
 -149.512695312 0 -149.512695312 0 -165.512695312 40 c 128,-1,33
 -181.512695312 80 -181.512695312 80 -171.512695312 128 c 0,34,35
 -160.512695312 179 -160.512695312 179 -121.512695312 185 c 0,36,37
 54.4873046875 216 54.4873046875 216 160.487304688 263 c 1,38,39
 294.487304688 325 294.487304688 325 354.487304688 342 c 0,40,41
 374.487304688 348 374.487304688 348 372.487304688 358 c 1,42,43
 372.487304688 366 372.487304688 366 356.487304688 373 c 0,44,45
 202.487304688 439 202.487304688 439 111.987304688 447 c 128,-1,46
 21.4873046875 455 21.4873046875 455 -55.5126953125 412 c 0,47,48
 -73.5126953125 402 -73.5126953125 402 -89.0126953125 406.5 c 128,-1,49
 -104.512695312 411 -104.512695312 411 -97.5126953125 436 c 0,50,51
 -44.5126953125 626 -44.5126953125 626 162.487304688 639 c 0,0,1
EndSplineSet
Fore
SplineSet
997.487304688 436.1875 m 2
 1300.48730469 436.1875 l 1
 1300.48730469 0 l 1
 922.529296875 0 l 2
 802.685546875 0 702.159179688 78.435546875 668.3515625 192.288085938 c 1
 600.112304688 69.7607421875 501.375 0 232.08203125 0 c 2
 -50 0 l 1
 -50 436.1875 l 1
 281.487304688 436.1875 l 2
 619.018554688 436.7265625 640.895507812 502.541992188 657.887695312 529.373046875 c 1
 598.234375 561.033203125 398.254882812 692.147460938 290.037109375 692.147460938 c 0
 117.424804688 692.147460938 192.193359375 574.806640625 192.193359375 574.806640625 c 1
 115.904296875 520.161132812 l 1
 76.7314453125 587.059570312 l 2
 46.7705078125 639.379882812 45.25 703.505859375 73.6904296875 756.719726562 c 0
 90.4150390625 788.112304688 180.298828125 976.375 320.35546875 976.375 c 0
 349.154296875 976.375 380.814453125 970.919921875 415.336914062 956.073242188 c 0
 594.477539062 879.248046875 694.556640625 795.087890625 963.669921875 795.087890625 c 2
 1044.7890625 795.53515625 l 1
 971.98828125 536.438476562 l 1
 971.98828125 536.438476562 916.626953125 550.659179688 846.419921875 491.2734375 c 1
 883.893554688 439.936523438 956.436523438 436.1875 997.487304688 436.1875 c 2
EndSplineSet
Colour: ff0000
EndChar
StartChar: aKaf.fina.alt
Encoding: 460 -1 203
Width: 1805
Flags: HW
LayerCount: 2
Back
SplineSet
-1513.18554688 186 m 0,0,1
 -874.185546875 133 -874.185546875 133 -20.185546875 195 c 0,2,3
 392.814453125 225 392.814453125 225 1561.81445312 348 c 0,4,5
 1582.81445312 350 1582.81445312 350 1569.81445312 373 c 0,6,7
 1495.81445312 510 1495.81445312 510 1375.81445312 522 c 0,8,9
 1199.81445312 540 1199.81445312 540 783.814453125 500 c 128,-1,10
 367.814453125 460 367.814453125 460 -134.685546875 424 c 128,-1,11
 -637.185546875 388 -637.185546875 388 -1067.18554688 423 c 0,12,13
 -1293.18554688 442 -1293.18554688 442 -1334.18554688 526 c 0,14,15
 -1348.18554688 556 -1348.18554688 556 -1333.18554688 588 c 0,16,17
 -1279.18554688 703 -1279.18554688 703 -1214.18554688 770 c 0,18,19
 -877.185546875 1112 -877.185546875 1112 -269.185546875 1287 c 1,20,21
 -235.185546875 1295 -235.185546875 1295 -240.185546875 1269 c 2,22,-1
 -270.185546875 1123 l 1,23,24
 -275.185546875 1104 -275.185546875 1104 -297.185546875 1098 c 0,25,26
 -572.185546875 1020 -572.185546875 1020 -815.685546875 903 c 128,-1,27
 -1059.18554688 786 -1059.18554688 786 -1191.18554688 664 c 0,28,29
 -1204.18554688 652 -1204.18554688 652 -1194.18554688 645 c 0,30,31
 -1087.18554688 570 -1087.18554688 570 -474.185546875 573 c 0,32,33
 -55.185546875 575 -55.185546875 575 544.814453125 635.5 c 128,-1,34
 1144.81445312 696 1144.81445312 696 1386.81445312 693 c 0,35,36
 1525.81445312 691 1525.81445312 691 1613.81445312 610.5 c 128,-1,37
 1701.81445312 530 1701.81445312 530 1710.81445312 406 c 1,38,39
 1714.81445312 371 1714.81445312 371 1654.81445312 281 c 1,40,41
 1641.81445312 202 1641.81445312 202 1741.81445312 191 c 0,42,43
 1755.81445312 190 1755.81445312 190 1855.81445312 185 c 0,44,45
 1894.81445312 184 1894.81445312 184 1905.31445312 138 c 128,-1,46
 1915.81445312 92 1915.81445312 92 1898.31445312 46 c 128,-1,47
 1880.81445312 0 1880.81445312 0 1855.81445312 0 c 0,48,49
 1697.81445312 0 1697.81445312 0 1654.81445312 13 c 0,50,51
 1526.81445312 52 1526.81445312 52 1548.81445312 165 c 1,52,-1
 1548.81445312 166 l 1,53,54
 1536.81445312 160 1536.81445312 160 1464.81445312 154 c 2,55,-1
 691.814453125 87 l 1,56,57
 -5.185546875 22 -5.185546875 22 -89.185546875 16 c 0,58,59
 -1311.18554688 -64 -1311.18554688 -64 -1717.18554688 28 c 0,60,61
 -1769.18554688 40 -1769.18554688 40 -1829.68554688 95.5 c 128,-1,62
 -1890.18554688 151 -1890.18554688 151 -1914.18554688 220 c 0,63,64
 -1931.18554688 266 -1931.18554688 266 -1897.18554688 256 c 0,65,66
 -1716.18554688 203 -1716.18554688 203 -1513.18554688 186 c 0,0,1
EndSplineSet
Fore
SplineSet
1541.37988281 436.1875 m 2
 1855.81445312 436.1875 l 1
 1855.81445312 0 l 1
 1748.40625 0 l 2
 1626.52832031 0 1525.24121094 81.80859375 1493.24121094 193.391601562 c 1
 1472.09277344 98.2265625 1407.25585938 -0 1268.68457031 0 c 2
 412.197265625 0 l 2
 245.243164062 -0.1083984375 110.005859375 134.678710938 110.005859375 301.634765625 c 2
 110.005859375 389.84375 l 1
 110.005859375 389.84375 106.110351562 648.0703125 302.284179688 754.086914062 c 1
 408.858398438 672.556640625 l 1
 408.858398438 672.556640625 319.536132812 614.678710938 319.536132812 524.244140625 c 0
 319.536132812 471.095703125 344.024414062 436.1875 425.553710938 436.1875 c 2
 1184.37109375 436.1875 l 2
 1262.28320312 436.143554688 1324.33691406 452.452148438 1324.33691406 523.965820312 c 0
 1324.33691406 619.6875 1245.58886719 613.84375 1025.76269531 613.84375 c 2
 580.544921875 614.122070312 l 1
 579.98828125 1000.93457031 l 2
 579.98828125 1059.09179688 617.553710938 1110.56933594 672.927734375 1128.37890625 c 2
 1177.69335938 1289.49121094 l 1
 1177.69335938 991.165039062 l 1
 827.083984375 879.026367188 l 1
 1080.58007812 878.469726562 l 2
 1390.84082031 878.469726562 1496.85839844 667.547851562 1496.85839844 480 c 0
 1496.85839844 453.565429688 1516.89550781 436.1875 1541.37988281 436.1875 c 2
EndSplineSet
Colour: ff0000
EndChar
StartChar: aKaf.fina
Encoding: 281 -1 25
Width: 1803
Flags: HW
LayerCount: 2
Back
SplineSet
1581.03222656 1453 m 2,0,1
 1603.03222656 1486 1603.03222656 1486 1607.53222656 1445 c 128,-1,2
 1612.03222656 1404 1612.03222656 1404 1639.03222656 1048 c 0,3,4
 1684.03222656 461 1684.03222656 461 1719.03222656 362 c 0,5,6
 1771.03222656 214 1771.03222656 214 1853.03222656 185 c 1,7,8
 1894.03222656 172 1894.03222656 172 1902.53222656 126.5 c 128,-1,9
 1911.03222656 81 1911.03222656 81 1892.03222656 40.5 c 128,-1,10
 1873.03222656 0 1873.03222656 0 1853.03222656 0 c 0,11,12
 1654.03222656 0 1654.03222656 0 1616.03222656 358 c 1,13,14
 1581.03222656 276 1581.03222656 276 1513.03222656 192.5 c 128,-1,15
 1445.03222656 109 1445.03222656 109 1374.03222656 73 c 0,16,17
 1139.03222656 -47 1139.03222656 -47 853.032226562 -57 c 0,18,19
 432.032226562 -71 432.032226562 -71 326.032226562 128 c 0,20,21
 297.032226562 182 297.032226562 182 298.032226562 238 c 0,22,23
 304.032226562 439 304.032226562 439 426.032226562 586 c 0,24,25
 436.032226562 598 436.032226562 598 450.032226562 597 c 128,-1,26
 464.032226562 596 464.032226562 596 467.532226562 584.5 c 128,-1,27
 471.032226562 573 471.032226562 573 457.032226562 552 c 0,28,29
 368.032226562 415 368.032226562 415 381.032226562 353 c 0,30,31
 425.032226562 142 425.032226562 142 820.032226562 136 c 0,32,33
 1092.03222656 132 1092.03222656 132 1377.03222656 244 c 0,34,35
 1476.03222656 283 1476.03222656 283 1531.03222656 364 c 0,36,37
 1546.03222656 386 1546.03222656 386 1550.53222656 453.5 c 128,-1,38
 1555.03222656 521 1555.03222656 521 1526.03222656 857.5 c 128,-1,39
 1497.03222656 1194 1497.03222656 1194 1497.03222656 1195 c 0,40,41
 1484.03222656 1309 1484.03222656 1309 1512.03222656 1350 c 2,42,-1
 1581.03222656 1453 l 2,0,1
EndSplineSet
Fore
SplineSet
1532.47558594 436.1875 m 2
 1853.03222656 436.1875 l 1
 1853.03222656 0 l 1
 1745.62304688 0 l 2
 1623.74511719 0 1522.45800781 81.80859375 1490.45800781 193.391601562 c 1
 1469.31054688 98.2265625 1404.47558594 -0.556640625 1265.90136719 -0.556640625 c 2
 412.197265625 -0.2783203125 l 2
 245.241210938 -0.2783203125 110.005859375 134.95703125 110.005859375 301.913085938 c 2
 110.005859375 390.122070312 l 1
 110.005859375 390.122070312 106.110351562 648.348632812 302.284179688 754.365234375 c 1
 408.858398438 672.834960938 l 1
 408.858398438 672.834960938 319.536132812 614.95703125 319.536132812 524.522460938 c 0
 319.536132812 471.374023438 344.024414062 436.14453125 425.553710938 436.1875 c 2
 1238.91015625 436.1875 l 2
 1308.75292969 436.1875 1325.40625 475.09375 1302.07519531 528.696289062 c 2
 1136.51074219 909.078125 l 2
 1118.14550781 951.65234375 1130.46289062 1001.08984375 1166.5625 1030.12207031 c 2
 1489.06640625 1289.49121094 l 1
 1600.64941406 855.930664062 l 1
 1500.19726562 786.643554688 l 1
 1501.31054688 471.374023438 l 2
 1501.37890625 451.895507812 1515.49121094 436.165039062 1532.47558594 436.1875 c 2
EndSplineSet
Colour: ff0000
EndChar
StartChar: aKaf.init_KafLam
Encoding: 596 -1 339
Width: 740
Flags: HW
LayerCount: 2
Back
SplineSet
-685.11328125 808 m 1,0,1
 -356.11328125 717 -356.11328125 717 -236.11328125 573 c 0,2,3
 -135.11328125 451 -135.11328125 451 -135.11328125 336 c 0,4,5
 -136.11328125 -63 -136.11328125 -63 -570.11328125 -22 c 0,6,7
 -602.11328125 -19 -602.11328125 -19 -617.11328125 22 c 0,8,9
 -637.11328125 77 -637.11328125 77 -623.11328125 123 c 0,10,11
 -600.11328125 197 -600.11328125 197 -571.11328125 192 c 0,12,13
 -355.11328125 158 -355.11328125 158 -197.11328125 302 c 0,14,15
 -186.11328125 312 -186.11328125 312 -191.11328125 320 c 0,16,17
 -332.11328125 539 -332.11328125 539 -723.11328125 643 c 1,18,19
 -765.11328125 652 -765.11328125 652 -765.11328125 748 c 1,20,21
 -766.11328125 825 -766.11328125 825 -745.11328125 873 c 0,22,23
 -675.11328125 1035 -675.11328125 1035 -252.11328125 1277 c 0,24,25
 86.88671875 1471 86.88671875 1471 391.88671875 1593 c 0,26,27
 448.88671875 1616 448.88671875 1616 435.88671875 1561 c 2,28,-1
 405.88671875 1431 l 2,29,30
 398.88671875 1402 398.88671875 1402 373.88671875 1393 c 0,31,32
 147.88671875 1311 147.88671875 1311 -222.11328125 1107.5 c 128,-1,33
 -592.11328125 904 -592.11328125 904 -685.11328125 808 c 1,0,1
EndSplineSet
Fore
SplineSet
630.869140625 1289.49121094 m 1
 630.869140625 991.721679688 l 1
 279.982421875 879.583007812 l 1
 279.982421875 879.583007812 581.060546875 847.3046875 581.060546875 520.0703125 c 2
 580.50390625 262.400390625 l 2
 580.50390625 141.356445312 509.547851562 0 352.88671875 0 c 2
 249.129882812 0 l 5
 249.129882812 436.1875 l 5
 268.573242188 436.1875 l 2
 346.486328125 436.1875 408.5390625 453.287109375 408.5390625 524.80078125 c 0
 408.5390625 684.244140625 -29.166015625 716.80078125 -29.166015625 716.80078125 c 1
 -30 1076.06542969 l 1
 630.869140625 1289.49121094 l 1
EndSplineSet
Colour: ff0000
EndChar
StartChar: aKaf.medi.alt
Encoding: 457 -1 200
Width: 1258
Flags: HW
LayerCount: 2
Back
SplineSet
-2011.53027344 185 m 0,0,1
 -1371.53027344 148 -1371.53027344 148 -533.530273438 229 c 0,2,3
 246.469726562 304 246.469726562 304 1044.46972656 418 c 0,4,5
 1065.46972656 421 1065.46972656 421 1052.46972656 443 c 0,6,7
 975.469726562 578 975.469726562 578 854.469726562 588 c 0,8,9
 678.469726562 602 678.469726562 602 263.469726562 552.5 c 128,-1,10
 -151.530273438 503 -151.530273438 503 -653.530273438 455 c 0,11,12
 -1145.53027344 408 -1145.53027344 408 -1585.53027344 433 c 0,13,14
 -1812.53027344 446 -1812.53027344 446 -1854.53027344 530 c 0,15,16
 -1869.53027344 560 -1869.53027344 560 -1854.53027344 592 c 0,17,18
 -1803.53027344 708 -1803.53027344 708 -1740.53027344 776 c 0,19,20
 -1411.53027344 1126 -1411.53027344 1126 -807.530273438 1315 c 1,21,22
 -772.530273438 1324 -772.530273438 1324 -777.530273438 1297 c 2,23,-1
 -804.530273438 1151 l 1,24,25
 -809.530273438 1132 -809.530273438 1132 -830.530273438 1125 c 0,26,27
 -1103.53027344 1041 -1103.53027344 1041 -1344.53027344 919 c 0,28,29
 -1568.53027344 805 -1568.53027344 805 -1714.53027344 671 c 0,30,31
 -1727.53027344 659 -1727.53027344 659 -1717.53027344 652 c 0,32,33
 -1608.53027344 579 -1608.53027344 579 -995.530273438 596 c 0,34,35
 -575.530273438 608 -575.530273438 608 22.4697265625 682 c 0,36,37
 632.469726562 757 632.469726562 757 861.469726562 759 c 0,38,39
 1000.46972656 760 1000.46972656 760 1090.46972656 681.5 c 128,-1,40
 1180.46972656 603 1180.46972656 603 1192.46972656 479 c 1,41,42
 1198.46972656 430 1198.46972656 430 1106.46972656 304 c 1,43,44
 1079.46972656 201 1079.46972656 201 1189.46972656 191 c 0,45,46
 1233.46972656 187 1233.46972656 187 1308.46972656 185 c 0,47,48
 1347.46972656 184 1347.46972656 184 1355.46972656 138 c 128,-1,49
 1363.46972656 92 1363.46972656 92 1348.46972656 46 c 128,-1,50
 1333.46972656 0 1333.46972656 0 1308.46972656 0 c 0,51,52
 1156.46972656 0 1156.46972656 0 1102.46972656 13 c 0,53,54
 947.469726562 50 947.469726562 50 1012.46972656 228 c 1,55,56
 250.469726562 126 250.469726562 126 -598.530273438 48 c 1,57,58
 -1445.53027344 -31 -1445.53027344 -31 -2011.53027344 0 c 0,59,60
 -2049.53027344 2 -2049.53027344 2 -2067.53027344 49 c 128,-1,61
 -2085.53027344 96 -2085.53027344 96 -2066.53027344 141.5 c 128,-1,62
 -2047.53027344 187 -2047.53027344 187 -2011.53027344 185 c 0,0,1
EndSplineSet
Fore
SplineSet
994.03515625 436.034179688 m 2
 1308.46972656 436.034179688 l 1
 1308.46972656 0 l 1
 1201.06054688 0 l 2
 1079.8203125 0 977.895507812 82.365234375 945.895507812 193.947265625 c 1
 924.748046875 98.7822265625 859.913085938 0 721.338867188 0 c 2
 -50 0 l 1
 -50 436.1875 l 1
 637.026367188 436.1875 l 2
 714.939453125 436.1875 776.991210938 453.286132812 776.991210938 524.799804688 c 0
 776.991210938 620.521484375 698.243164062 614.677734375 478.41796875 614.677734375 c 2
 33.2001953125 614.956054688 l 1
 32.6435546875 1000.93554688 l 2
 32.6435546875 1059.09179688 70.208984375 1110.5703125 125.583007812 1128.37890625 c 2
 630.625976562 1289.49121094 l 1
 630.625976562 991.721679688 l 1
 279.739257812 879.58203125 l 1
 533.235351562 879.025390625 l 2
 843.49609375 879.025390625 949.512695312 664.208007812 949.512695312 480.556640625 c 0
 949.512695312 457.182617188 969.547851562 436.034179688 994.03515625 436.034179688 c 2
EndSplineSet
Colour: ff0000
EndChar
StartChar: aLam.fina_KafLam
Encoding: 604 -1 347
Width: 1313
Flags: HW
LayerCount: 2
Back
SplineSet
1291 64 m 1,0,1
 1355 -438 1355 -438 1186 -566 c 0,2,3
 967 -732 967 -732 763.5 -736.5 c 128,-1,4
 560 -741 560 -741 444 -627 c 128,-1,5
 328 -513 328 -513 354.5 -314.5 c 128,-1,6
 381 -116 381 -116 534 87 c 0,7,8
 543 99 543 99 557 98.5 c 128,-1,9
 571 98 571 98 576.5 85.5 c 128,-1,10
 582 73 582 73 570 55 c 0,11,12
 397 -194 397 -194 466 -352 c 0,13,14
 546 -536 546 -536 833 -519 c 0,15,16
 1069 -505 1069 -505 1255 -321 c 1,17,-1
 1155 1072 l 2,18,19
 1150 1140 1150 1140 1159 1174 c 1,20,-1
 1196 1296 l 1,21,22
 1225 1333 1225 1333 1237 1255 c 1,23,-1
 1291 712 l 1,24,25
 1333 228 1333 228 1453 192 c 1,26,27
 1523 159 1523 159 1507 105 c 0,28,29
 1470 -25 1470 -25 1454 -22 c 0,30,31
 1332 2 1332 2 1277 170 c 1,32,-1
 1291 64 l 1,0,1
EndSplineSet
Fore
SplineSet
1110.16503906 436.1875 m 2
 1363.22558594 436.1875 l 1
 1363.22558594 0 l 1
 1264.59960938 0 l 2
 1182.234375 0 1120.18261719 36.4521484375 1081.78222656 77.9130859375 c 1
 1080.66894531 76.7998046875 1082.6171875 16.1396484375 1082.6171875 -0.2783203125 c 0
 1082.89550781 -144.138671875 1044.49511719 -430.19140625 643.243164062 -430.19140625 c 0
 96.7392578125 -430.19140625 8.251953125 76.521484375 206.930664062 412.104492188 c 1
 371.661132812 412.104492188 l 1
 217.50390625 106.852539062 429.817382812 12.521484375 623.486328125 12.521484375 c 0
 802.408203125 12.521484375 897.017578125 69.84375 867.243164062 207.861328125 c 2
 745.643554688 944.41796875 l 2
 737.57421875 993.948242188 756.7734375 1043.75683594 796.008789062 1074.921875 c 2
 1065.921875 1289.4609375 l 1
 1065.921875 1289.4609375 1070.25195312 774.643554688 1075.66113281 465.80859375 c 0
 1075.97363281 447.986328125 1093.47265625 436.165039062 1110.16503906 436.1875 c 2
EndSplineSet
Colour: ff0000
EndChar
StartChar: aLam.init_LamAlfIsol
Encoding: 353 -1 97
Width: 1134
Flags: HW
LayerCount: 2
Back
SplineSet
393.920898438 110 m 0,0,1
 332.920898438 50 332.920898438 50 247.920898438 47 c 0,2,3
 193.920898438 46 193.920898438 46 194.920898438 68 c 128,-1,4
 195.920898438 90 195.920898438 90 244.920898438 117 c 0,5,6
 575.920898438 301 575.920898438 301 621.920898438 791 c 0,7,8
 645.920898438 1044 645.920898438 1044 626.920898438 1292 c 0,9,10
 620.920898438 1371 620.920898438 1371 633.920898438 1393 c 0,11,12
 676.920898438 1470 676.920898438 1470 684.920898438 1483 c 128,-1,13
 692.920898438 1496 692.920898438 1496 705.420898438 1493.5 c 128,-1,14
 717.920898438 1491 717.920898438 1491 720.920898438 1479 c 0,15,16
 751.920898438 1360 751.920898438 1360 781.920898438 1325.5 c 128,-1,17
 811.920898438 1291 811.920898438 1291 784.920898438 1264 c 2,18,-1
 727.920898438 1205 l 1,19,20
 735.920898438 975 735.920898438 975 676.920898438 673 c 0,21,22
 607.920898438 320 607.920898438 320 393.920898438 110 c 0,0,1
EndSplineSet
Fore
SplineSet
1024.08691406 989.573242188 m 1
 1024.08691406 989.8515625 l 1
 944.50390625 989.8515625 l 1
 909.165039062 900.80859375 745.26953125 735.243164062 745.26953125 735.243164062 c 1
 1014.06933594 333.991210938 921.96484375 -161.313476562 480.920898438 51 c 0
 120.016601562 224.634765625 103.599609375 393.260742188 184.294921875 467 c 0
 410.243164062 673.190429688 780.330078125 805.365234375 645.094726562 1182.68652344 c 1
 955.078125 1289.49121094 l 1
 1024.08691406 989.573242188 l 1
722.173828125 403.833984375 m 0
 735.251953125 425.260742188 725.512695312 441.677734375 713.26953125 462.26953125 c 0
 696.294921875 490.9296875 656.782226562 542.129882812 600.294921875 608.078125 c 1
 519.877929688 538.234375 413.58203125 476.182617188 413.58203125 476.182617188 c 2
 413.303710938 475.34765625 505.96484375 391.869140625 629.791015625 382.96484375 c 0
 682.66015625 379.34765625 710.208007812 388.80859375 722.173828125 403.833984375 c 0
EndSplineSet
Colour: ff0000
EndChar
StartChar: aLam.init_LamMemIsol
Encoding: 642 -1 385
Width: 715
Flags: HW
LayerCount: 2
Back
SplineSet
91.3037109375 1559 m 1,0,1
 107.303710938 1590 107.303710938 1590 120.303710938 1558 c 0,2,3
 148.303710938 1486 148.303710938 1486 239.303710938 1417 c 0,4,5
 263.303710938 1399 263.303710938 1399 250.303710938 1376 c 128,-1,6
 237.303710938 1353 237.303710938 1353 215.803710938 1320 c 128,-1,7
 194.303710938 1287 194.303710938 1287 186.303710938 1273 c 1,8,-1
 239.303710938 815 l 1,9,10
 252.303710938 688 252.303710938 688 228.303710938 541 c 1,11,12
 221.303710938 490 221.303710938 490 197.303710938 431 c 1,13,-1
 168.303710938 364 l 2,14,15
 141.303710938 300 141.303710938 300 50.3037109375 325 c 0,16,17
 -15.6962890625 343 -15.6962890625 343 -29.6962890625 379 c 0,18,19
 -42.6962890625 415 -42.6962890625 415 30.3037109375 432 c 0,20,21
 136.303710938 457 136.303710938 457 177.303710938 516 c 1,22,23
 173.303710938 634 173.303710938 634 157.803710938 769.5 c 128,-1,24
 142.303710938 905 142.303710938 905 108.303710938 1110 c 128,-1,25
 74.3037109375 1315 74.3037109375 1315 63.3037109375 1356 c 0,26,27
 39.3037109375 1447 39.3037109375 1447 47.3037109375 1466 c 2,28,-1
 91.3037109375 1559 l 1,0,1
EndSplineSet
Fore
SplineSet
425.547851562 292.174804688 m 1
 425.547851562 291.896484375 l 1
 147.84375 291.896484375 l 1
 147.84375 436.1875 l 1
 232.434570312 436.744140625 250.447265625 471.18359375 225.756835938 528.41796875 c 2
 30.6962890625 980.591796875 l 1
 414.41796875 1289.4609375 l 1
 526 855.930664062 l 1
 425.547851562 786.643554688 l 1
 425.547851562 598.26171875 l 1
 425.547851562 598.26171875 l 1
 425.547851562 292.174804688 l 1
EndSplineSet
Colour: ff0000
EndChar
StartChar: aLam.medi
Encoding: 289 -1 33
Width: 722
Flags: HW
LayerCount: 2
Back
SplineSet
772.260742188 185 m 0,0,1
 799.260742188 179 799.260742188 179 798.260742188 125 c 0,2,3
 795.260742188 -2 795.260742188 -2 772.260742188 0 c 0,4,5
 656.260742188 14 656.260742188 14 569.260742188 236 c 0,6,7
 551.260742188 281 551.260742188 281 544.260742188 229 c 1,8,9
 509.260742188 2 509.260742188 2 367.260742188 0 c 0,10,11
 352.260742188 0 352.260742188 0 344.260742188 23 c 0,12,13
 294.260742188 164 294.260742188 164 367.260742188 185 c 0,14,15
 438.260742188 206 438.260742188 206 475.260742188 258 c 0,16,17
 507.260742188 302 507.260742188 302 505.260742188 373 c 2,18,-1
 469.260742188 1300 l 2,19,20
 468.260742188 1326 468.260742188 1326 478.260742188 1336 c 1,21,-1
 537.260742188 1405 l 2,22,23
 558.260742188 1430 558.260742188 1430 560.260742188 1394 c 1,24,25
 569.260742188 1295 569.260742188 1295 575.260742188 1124 c 0,26,27
 596.260742188 500 596.260742188 500 615.260742188 417 c 0,28,29
 663.260742188 209 663.260742188 209 772.260742188 185 c 0,0,1
EndSplineSet
Fore
SplineSet
451.982421875 436.1875 m 6
 772.260742188 436.1875 l 5
 772.260742188 0 l 5
 664.8515625 0 l 6
 543.474609375 0 441.686523438 82.365234375 409.686523438 193.948242188 c 5
 388.5390625 98.7822265625 323.704101562 0 185.129882812 0 c 6
 -50 0 l 5
 -50 436.313476562 l 5
 158.416992188 436.313476562 l 6
 229.651367188 441.04296875 244.677734375 475.547851562 221.58203125 529.251953125 c 6
 59.9130859375 900.73046875 l 6
 39.3212890625 948.313476562 52.990234375 1003.921875 93.58203125 1036.52148438 c 6
 408.573242188 1289.49121094 l 5
 520.15625 856.208984375 l 5
 419.704101562 786.921875 l 5
 420.817382812 471.65234375 l 6
 420.885742188 452.173828125 435.048828125 436.1875 451.982421875 436.1875 c 6
EndSplineSet
Colour: ff0000
EndChar
StartChar: aLam.medi_LamAlfFina
Encoding: 394 -1 138
Width: 1236
Flags: HW
LayerCount: 2
Back
SplineSet
826.765625 1298 m 2,0,-1
 881.765625 1382 l 2,1,2
 915.765625 1435 915.765625 1435 921.765625 1359 c 0,3,4
 976.765625 614 976.765625 614 1028.265625 413 c 128,-1,5
 1079.765625 212 1079.765625 212 1188.765625 185 c 0,6,7
 1247.765625 170 1247.765625 170 1229.765625 42 c 0,8,9
 1223.765625 0 1223.765625 0 1188.765625 0 c 0,10,11
 1012.765625 0 1012.765625 0 953.765625 213 c 0,12,13
 919.765625 334 919.765625 334 894.765625 564 c 128,-1,14
 869.765625 794 869.765625 794 865.765625 810 c 128,-1,15
 861.765625 826 861.765625 826 857.765625 828 c 0,16,17
 851.765625 830 851.765625 830 841.765625 734 c 0,18,19
 790.765625 268 790.765625 268 587.765625 56 c 0,20,21
 497.765625 -37 497.765625 -37 387.765625 -64 c 0,22,23
 140.765625 -123 140.765625 -123 62.765625 -115 c 0,24,25
 51.765625 -114 51.765625 -114 51.765625 -101 c 128,-1,26
 51.765625 -88 51.765625 -88 63.765625 -83 c 0,27,28
 197.765625 -33 197.765625 -33 408.765625 96.5 c 128,-1,29
 619.765625 226 619.765625 226 677.765625 340 c 0,30,31
 755.765625 495 755.765625 495 786.265625 762.5 c 128,-1,32
 816.765625 1030 816.765625 1030 813.265625 1151 c 128,-1,33
 809.765625 1272 809.765625 1272 826.765625 1298 c 2,0,-1
EndSplineSet
Fore
SplineSet
1087.25292969 436.1875 m 2
 1286.765625 436.1875 l 1
 1286.765625 0 l 1
 1145.13085938 0 l 2
 1022.97460938 0 921.6875 82.921875 889.965820312 195.061523438 c 1
 889.965820312 194.783203125 863.809570312 0.556640625 531.565429688 0.556640625 c 2
 457.26953125 0.2783203125 l 2
 194.03515625 0.2783203125 110 182.5390625 110 362.017578125 c 2
 110 436.591796875 l 1
 718 436.313476562 l 1
 718 1026.2265625 l 1
 1050.80078125 1290.01757812 l 1
 1050.24414062 479.166015625 l 2
 1050.22851562 456.626953125 1066.10546875 436.1875 1087.25292969 436.1875 c 2
EndSplineSet
Colour: ff0000
EndChar
StartChar: aMem.fina
Encoding: 291 -1 35
Width: 1306
Flags: HW
LayerCount: 2
Back
SplineSet
821.88671875 417 m 0,0,1
 923.88671875 296 923.88671875 296 1067.38671875 242.5 c 128,-1,2
 1210.88671875 189 1210.88671875 189 1356.88671875 185 c 0,3,4
 1422.88671875 183 1422.88671875 183 1407.38671875 92 c 128,-1,5
 1391.88671875 1 1391.88671875 1 1356.88671875 0 c 0,6,7
 1169.88671875 -1 1169.88671875 -1 1020.88671875 81 c 0,8,9
 1009.88671875 87 1009.88671875 87 1010.88671875 76 c 0,10,11
 1019.88671875 -142 1019.88671875 -142 933.88671875 -212 c 0,12,13
 904.88671875 -235 904.88671875 -235 875.88671875 -210 c 0,14,15
 754.88671875 -104 754.88671875 -104 731.88671875 117 c 1,16,17
 622.88671875 114 622.88671875 114 505.88671875 -4 c 1,18,19
 483.88671875 -28 483.88671875 -28 519.88671875 -270 c 0,20,21
 632.88671875 -1015 632.88671875 -1015 604.88671875 -1124 c 0,22,23
 591.88671875 -1172 591.88671875 -1172 574.88671875 -1182.5 c 128,-1,24
 557.88671875 -1193 557.88671875 -1193 543.88671875 -1171 c 128,-1,25
 529.88671875 -1149 529.88671875 -1149 528.88671875 -1112 c 0,26,27
 521.88671875 -913 521.88671875 -913 447.88671875 -477 c 0,28,29
 384.88671875 -105 384.88671875 -105 458.88671875 86 c 1,30,31
 525.88671875 256 525.88671875 256 749.88671875 348 c 1,32,33
 761.88671875 384 761.88671875 384 781.38671875 413 c 128,-1,34
 800.88671875 442 800.88671875 442 821.88671875 417 c 0,0,1
EndSplineSet
Fore
SplineSet
1215.25195312 436.1875 m 2
 1356.88671875 436.1875 l 1
 1356.88671875 0 l 1
 1249.47851562 0 l 2
 1128.43457031 0 1025.75585938 81.80859375 993.200195312 192.556640625 c 1
 867.42578125 0 l 1
 867.42578125 0 592.782226562 192 464.225585938 192 c 0
 387.42578125 192 370.452148438 121.600585938 372.677734375 3.8955078125 c 0
 374.904296875 -129.669921875 406.625976562 -499.200195312 406.625976562 -499.200195312 c 1
 110 -648.5 l 1
 110 143.026367188 l 2
 110 447.721679688 374.904296875 436.1875 374.904296875 436.1875 c 1
 399.668945312 436.1875 l 1
 382.138671875 507.143554688 409.821289062 593.915039062 494.834960938 708.452148438 c 0
 581.374023438 825.043945312 634.521484375 879.861328125 736.643554688 879.861328125 c 0
 977.6171875 879.861328125 991.639648438 436.1875 1215.25195312 436.1875 c 2
662.34765625 436.1875 m 1
 870.764648438 436.1875 l 1
 870.764648438 436.1875 737.200195312 603.701171875 648.991210938 603.701171875 c 0
 593.6171875 603.701171875 568.57421875 569.474609375 568.57421875 515.770507812 c 0
 568.57421875 455.666015625 627.008789062 436.1875 662.34765625 436.1875 c 1
EndSplineSet
Colour: ff0000
EndChar
StartChar: aMem.fina_KafMemIsol
Encoding: 644 -1 387
Width: 1105
Flags: HW
LayerCount: 2
Back
SplineSet
570.755859375 263 m 0,0,1
 615.755859375 391 615.755859375 391 640.255859375 410.5 c 128,-1,2
 664.755859375 430 664.755859375 430 798.755859375 381.5 c 128,-1,3
 932.755859375 333 932.755859375 333 1054.75585938 241 c 0,4,5
 1090.75585938 214 1090.75585938 214 1074.75585938 167 c 0,6,7
 1042.75585938 73 1042.75585938 73 1038.75585938 63 c 0,8,9
 1024.75585938 25 1024.75585938 25 998.755859375 28 c 0,10,11
 779.755859375 56 779.755859375 56 609.755859375 10 c 0,12,13
 506.755859375 -18 506.755859375 -18 460.755859375 -67 c 1,14,15
 456.755859375 -78 456.755859375 -78 476.755859375 -202 c 2,16,-1
 522.755859375 -494 l 1,17,18
 550.755859375 -663 550.755859375 -663 556.755859375 -741 c 0,19,20
 568.755859375 -915 568.755859375 -915 534.755859375 -1021 c 0,21,22
 526.755859375 -1047 526.755859375 -1047 506.755859375 -1045 c 0,23,24
 479.755859375 -1042 479.755859375 -1042 485.755859375 -990 c 0,25,26
 498.755859375 -863 498.755859375 -863 402.755859375 -377 c 1,27,28
 372.755859375 -198 372.755859375 -198 408.755859375 -77.5 c 128,-1,29
 444.755859375 43 444.755859375 43 500.755859375 103.5 c 128,-1,30
 556.755859375 164 556.755859375 164 640.755859375 204 c 1,31,32
 635.755859375 207 635.755859375 207 617.255859375 213 c 128,-1,33
 598.755859375 219 598.755859375 219 579.755859375 228 c 128,-1,34
 560.755859375 237 560.755859375 237 570.755859375 263 c 0,0,1
EndSplineSet
Fore
SplineSet
733.58203125 559.986328125 m 1
 733.58203125 549.134765625 l 2
 733.58203125 347.395507812 995.42578125 194.3515625 995.42578125 194.3515625 c 1
 769.755859375 -124.256835938 l 1
 769.755859375 -124.256835938 647.877929688 54.943359375 444.190429688 54.943359375 c 0
 398 54.943359375 374.34765625 26.2822265625 372.956054688 -11.5615234375 c 0
 372.399414062 -24.91796875 372.399414062 -39.109375 372.677734375 -54.134765625 c 0
 375.182617188 -187.700195312 406.625976562 -498.517578125 406.625976562 -498.517578125 c 1
 110 -648.5 l 1
 110 143.708007812 l 2
 110 448.404296875 374.904296875 436.1875 374.904296875 436.1875 c 1
 600.8515625 436.1875 l 1
 600.8515625 559.986328125 l 1
 733.58203125 559.986328125 l 1
EndSplineSet
Colour: ff0000
EndChar
StartChar: aMem.medi
Encoding: 294 -1 38
Width: 1091
Flags: HW
LayerCount: 2
Back
SplineSet
647.791992188 511 m 0,0,1
 660.791992188 516 660.791992188 516 666.791992188 507 c 0,2,3
 741.791992188 397 741.791992188 397 863.791992188 298.5 c 128,-1,4
 985.791992188 200 985.791992188 200 1141.79199219 185 c 0,5,6
 1181.79199219 181 1181.79199219 181 1181.79199219 134 c 0,7,8
 1180.79199219 0 1180.79199219 0 1141.79199219 0 c 0,9,10
 999.791992188 0 999.791992188 0 853.791992188 102 c 1,11,12
 845.791992188 -8 845.791992188 -8 827.791992188 -26 c 128,-1,13
 809.791992188 -44 809.791992188 -44 790.791992188 -43 c 0,14,15
 561.791992188 -26 561.791992188 -26 406.791992188 160 c 0,16,17
 399.791992188 169 399.791992188 169 391.791992188 158 c 0,18,19
 290.791992188 4 290.791992188 4 191.791992188 0 c 0,20,21
 170.791992188 -1 170.791992188 -1 161.791992188 33 c 0,22,23
 136.791992188 125 136.791992188 125 163.791992188 164 c 0,24,25
 177.791992188 184 177.791992188 184 191.791992188 185 c 0,26,27
 384.791992188 191 384.791992188 191 427.791992188 282 c 1,28,29
 517.791992188 464 517.791992188 464 647.791992188 511 c 0,0,1
639.791992188 360 m 0,30,31
 636.791992188 366 636.791992188 366 625.791992188 364 c 0,32,33
 562.791992188 348 562.791992188 348 537.791992188 313 c 0,34,35
 528.791992188 300 528.791992188 300 539.791992188 290 c 0,36,37
 612.791992188 229 612.791992188 229 715.791992188 197 c 0,38,39
 743.791992188 189 743.791992188 189 728.791992188 208 c 0,40,41
 684.791992188 264 684.791992188 264 639.791992188 360 c 0,30,31
EndSplineSet
Fore
SplineSet
1000.43554688 436.1875 m 2
 1141.79199219 436.1875 l 1
 1141.79199219 0 l 1
 1034.3828125 0 l 2
 913.33984375 0 810.661132812 81.80859375 778.104492188 192.555664062 c 1
 638.41796875 -37.0087890625 l 1
 638.41796875 -37.0087890625 439.182617188 64.833984375 259.426757812 111.303710938 c 1
 241.061523438 54.5390625 170.626953125 -0.7265625 67.9833984375 0 c 2
 -50 0 l 1
 -50 436.1875 l 1
 184.852539062 436.1875 l 1
 167.322265625 507.14453125 195.00390625 593.916015625 280.017578125 708.452148438 c 0
 366.556640625 825.04296875 419.705078125 879.860351562 521.826171875 879.860351562 c 0
 762.80078125 879.860351562 776.78515625 436.1875 1000.43554688 436.1875 c 2
447.53125 436.1875 m 1
 655.948242188 436.1875 l 1
 655.948242188 436.1875 522.3828125 603.700195312 434.174804688 603.700195312 c 0
 378.80078125 603.700195312 353.756835938 569.474609375 353.756835938 515.770507812 c 0
 353.756835938 455.666015625 412.19140625 436.1875 447.53125 436.1875 c 1
EndSplineSet
Colour: ff0000
EndChar
StartChar: aQaf.fina
Encoding: 299 -1 43
Width: 1430
Flags: HW
LayerCount: 2
Back
SplineSet
1233.43847656 442 m 0,0,1
 1363.43847656 428 1363.43847656 428 1405.43847656 184 c 1,2,3
 1475.43847656 185 1475.43847656 185 1480.43847656 185 c 0,4,5
 1509.43847656 185 1509.43847656 185 1519.93847656 138.5 c 128,-1,6
 1530.43847656 92 1530.43847656 92 1519.43847656 46 c 128,-1,7
 1508.43847656 0 1508.43847656 0 1480.43847656 0 c 2,8,-1
 1401.43847656 0 l 1,9,10
 1398.43847656 -16 1398.43847656 -16 1371.93847656 -113 c 128,-1,11
 1345.43847656 -210 1345.43847656 -210 1303.43847656 -266 c 0,12,13
 1140.43847656 -483 1140.43847656 -483 824.438476562 -522 c 0,14,15
 646.438476562 -544 646.438476562 -544 520.438476562 -472 c 0,16,17
 416.438476562 -412 416.438476562 -412 382.438476562 -299 c 0,18,19
 324.438476562 -102 324.438476562 -102 462.438476562 138 c 1,20,-1
 521.438476562 237 l 2,21,22
 530.438476562 252 530.438476562 252 542.438476562 251 c 128,-1,23
 554.438476562 250 554.438476562 250 558.938476562 238 c 128,-1,24
 563.438476562 226 563.438476562 226 556.438476562 215 c 0,25,26
 517.438476562 150 517.438476562 150 508.438476562 136 c 0,27,28
 390.438476562 -67 390.438476562 -67 494.438476562 -219 c 0,29,30
 561.438476562 -316 561.438476562 -316 735.438476562 -337.5 c 128,-1,31
 909.438476562 -359 909.438476562 -359 1085.43847656 -290 c 128,-1,32
 1261.43847656 -221 1261.43847656 -221 1329.43847656 -87 c 1,33,34
 1339.43847656 -59 1339.43847656 -59 1321.43847656 1 c 1,35,36
 1149.43847656 1 1149.43847656 1 1078.93847656 62 c 128,-1,37
 1008.43847656 123 1008.43847656 123 1115.43847656 303 c 0,38,39
 1200.43847656 445 1200.43847656 445 1233.43847656 442 c 0,0,1
1255.43847656 210 m 0,40,41
 1231.43847656 264 1231.43847656 264 1189.93847656 263 c 128,-1,42
 1148.43847656 262 1148.43847656 262 1159.43847656 235 c 0,43,44
 1179.43847656 188 1179.43847656 188 1246.43847656 195 c 0,45,46
 1261.43847656 197 1261.43847656 197 1255.43847656 210 c 0,40,41
EndSplineSet
Fore
SplineSet
1126.21289062 436.1875 m 5
 1480.43847656 436.1875 l 5
 1480.43847656 0 l 5
 1127.60351562 0 l 5
 1127.60351562 -169.739257812 l 6
 1127.60351562 -288.278320312 1057.20410156 -574.330078125 642.594726562 -574.330078125 c 4
 99.4296875 -574.330078125 7.3251953125 -67.6171875 206.560546875 267.965820312 c 5
 371.291015625 267.965820312 l 5
 217.133789062 -37.287109375 429.447265625 -132.173828125 623.1171875 -132.173828125 c 4
 852.403320312 -132.173828125 930.31640625 -59.826171875 949.23828125 9.7392578125 c 5
 719.672851562 9.7392578125 l 6
 598.629882812 9.7392578125 500.681640625 107.6875 500.681640625 228.73046875 c 6
 500.681640625 508.104492188 l 6
 500.681640625 666.434570312 575.534179688 794.712890625 787.291015625 794.712890625 c 4
 971.499023438 794.712890625 1112.578125 647.387695312 1126.21289062 436.1875 c 5
721.899414062 436.1875 m 5
 930.31640625 436.1875 l 5
 930.31640625 436.1875 796.751953125 603.700195312 708.54296875 603.700195312 c 4
 653.168945312 603.700195312 628.125 569.474609375 628.125 515.76953125 c 4
 628.125 455.666015625 686.560546875 436.1875 721.899414062 436.1875 c 5
EndSplineSet
Colour: ff0000
EndChar
StartChar: aRaa.fina
Encoding: 302 -1 46
Width: 848
Flags: HW
LayerCount: 2
Back
SplineSet
665.939453125 128 m 2,0,-1
 729.939453125 291 l 2,1,2
 743.939453125 325 743.939453125 325 755.939453125 303 c 0,3,4
 790.939453125 241 790.939453125 241 821.439453125 213 c 128,-1,5
 851.939453125 185 851.939453125 185 899.939453125 185 c 0,6,7
 947.939453125 184 947.939453125 184 947.939453125 93.5 c 128,-1,8
 947.939453125 3 947.939453125 3 899.939453125 0 c 0,9,10
 865.939453125 -2 865.939453125 -2 831.939453125 0 c 0,11,12
 823.939453125 0 823.939453125 0 821.939453125 -12 c 1,13,14
 815.939453125 -211 815.939453125 -211 682.939453125 -383.5 c 128,-1,15
 549.939453125 -556 549.939453125 -556 434.939453125 -569 c 128,-1,16
 319.939453125 -582 319.939453125 -582 241.939453125 -564 c 128,-1,17
 163.939453125 -546 163.939453125 -546 43.939453125 -486 c 0,18,19
 29.939453125 -479 29.939453125 -479 25.939453125 -468 c 128,-1,20
 21.939453125 -457 21.939453125 -457 29.939453125 -450.5 c 128,-1,21
 37.939453125 -444 37.939453125 -444 49.939453125 -448 c 1,22,23
 183.939453125 -481 183.939453125 -481 283.939453125 -460 c 0,24,25
 491.939453125 -416 491.939453125 -416 665.939453125 -221 c 0,26,27
 739.939453125 -139 739.939453125 -139 757.939453125 -56 c 1,28,29
 759.939453125 -4 759.939453125 -4 673.939453125 83 c 0,30,31
 655.939453125 100 655.939453125 100 665.939453125 128 c 2,0,-1
EndSplineSet
Fore
SplineSet
604.817382812 436.1875 m 2
 898.939453125 436.1875 l 1
 898.939453125 0 l 1
 780.400390625 0 l 2
 669.374023438 0 602.870117188 80.138671875 602.870117188 80.138671875 c 1
 617.618164062 -129.11328125 498.522460938 -575.874023438 379.1484375 -634.865234375 c 0
 361.061523438 -643.76953125 337.6875 -648.5 308.748046875 -648.5 c 0
 202.174804688 -648.5 -249.721679688 -456.34765625 -249.721679688 -456.34765625 c 1
 -250 -349.774414062 l 1
 -250 -349.774414062 419.49609375 -135.235351562 419.49609375 38.3994140625 c 0
 419.49609375 145.80859375 122.03515625 344.486328125 122.03515625 344.486328125 c 1
 305.409179688 648.069335938 l 1
 305.409179688 648.069335938 475.705078125 436.1875 604.817382812 436.1875 c 2
EndSplineSet
Colour: ff0000
EndChar
StartChar: aRaa.isol
Encoding: 303 -1 47
Width: 648
Flags: HW
LayerCount: 2
Back
SplineSet
268.8359375 571 m 2,0,1
 274.8359375 596 274.8359375 596 304.8359375 566 c 0,2,3
 384.8359375 484 384.8359375 484 424.8359375 346.5 c 128,-1,4
 464.8359375 209 464.8359375 209 452.8359375 71 c 1,5,6
 428.8359375 -107 428.8359375 -107 309.8359375 -259.5 c 128,-1,7
 190.8359375 -412 190.8359375 -412 -1.1640625 -462 c 0,8,9
 -53.1640625 -476 -53.1640625 -476 -99.1640625 -460 c 0,10,11
 -339.1640625 -379 -339.1640625 -379 -397.1640625 -343 c 0,12,13
 -405.1640625 -338 -405.1640625 -338 -405.1640625 -330 c 128,-1,14
 -405.1640625 -322 -405.1640625 -322 -398.1640625 -316 c 128,-1,15
 -391.1640625 -310 -391.1640625 -310 -381.1640625 -313 c 0,16,17
 -241.1640625 -356 -241.1640625 -356 -139.1640625 -343 c 128,-1,18
 -37.1640625 -330 -37.1640625 -330 94.8359375 -245 c 0,19,20
 290.8359375 -118 290.8359375 -118 378.8359375 50 c 0,21,22
 386.8359375 65 386.8359375 65 382.8359375 82 c 0,23,24
 352.8359375 190 352.8359375 190 222.8359375 351 c 0,25,26
 216.8359375 360 216.8359375 360 218.8359375 366 c 2,27,-1
 268.8359375 571 l 2,0,1
EndSplineSet
Fore
SplineSet
314.120117188 648.50390625 m 5
 314.120117188 648.50390625 538.068359375 499.056640625 538.158203125 126.46484375 c 4
 538.068359375 -0.802734375 512.221679688 -154.275390625 441.65625 -336.45703125 c 4
 379.85546875 -496.189453125 315.461914062 -648.5 176.8359375 -648.5 c 4
 52.876953125 -648.5 -329.731445312 -455.764648438 -329.731445312 -455.764648438 c 5
 -330 -349.067382812 l 5
 -80.2939453125 -299.788085938 326.283203125 -61.708984375 326.283203125 53.216796875 c 4
 326.283203125 149.002929688 120.401367188 330.6484375 120.401367188 330.6484375 c 5
 314.120117188 648.50390625 l 5
EndSplineSet
Colour: ff0000
EndChar
StartChar: aSad.fina
Encoding: 304 -1 48
Width: 2401
VWidth: 0
Flags: HW
LayerCount: 2
Back
SplineSet
2005 479 m 1,0,1
 1832 479 1832 479 1704 376 c 1,2,-1
 1572 259 l 1,3,4
 1713 254 1713 254 1897 290.5 c 128,-1,5
 2081 327 2081 327 2158 397 c 1,6,7
 2090 480 2090 480 2005 479 c 1,0,1
1702 56 m 0,8,9
 1463 40 1463 40 1266 87 c 1,10,11
 1221 -264 1221 -264 1147 -335 c 0,12,13
 930 -543 930 -543 601 -567 c 0,14,15
 360 -585 360 -585 235.5 -439.5 c 128,-1,16
 111 -294 111 -294 133 -116 c 0,17,18
 162 119 162 119 295 269 c 0,19,20
 311 287 311 287 324 285 c 128,-1,21
 337 283 337 283 337.5 269 c 128,-1,22
 338 255 338 255 328 242 c 0,23,24
 98 -57 98 -57 306 -263 c 0,25,26
 411 -366 411 -366 580 -366 c 0,27,28
 864 -366 864 -366 1085 -221 c 0,29,30
 1153 -176 1153 -176 1191 -93 c 0,31,32
 1196 -82 1196 -82 1194 -64 c 0,33,34
 1174 117 1174 117 1090 238 c 0,35,36
 1074 261 1074 261 1079 275 c 2,37,-1
 1143 443 l 1,38,39
 1162 479 1162 479 1180 448 c 2,40,-1
 1255 319 l 1,41,42
 1317 280 1317 280 1478 266 c 1,43,44
 1628 434 1628 434 1819.5 577 c 128,-1,45
 2011 720 2011 720 2114 721 c 0,46,47
 2191 722 2191 722 2250 662.5 c 128,-1,48
 2309 603 2309 603 2338 523 c 0,49,50
 2344 506 2344 506 2341 489 c 0,51,52
 2328 393 2328 393 2221 257 c 1,53,54
 2209 246 2209 246 2197 236 c 1,55,56
 2323 189 2323 189 2418 185 c 0,57,58
 2437 184 2437 184 2441 134 c 0,59,60
 2453 3 2453 3 2418 0 c 0,61,62
 2250 -17 2250 -17 1996 117 c 1,63,64
 1867 68 1867 68 1702 56 c 0,8,9
EndSplineSet
Fore
SplineSet
2104.84375 436.1875 m 1
 2451 436.1875 l 1
 2451 0 l 1
 2299.34765625 0 l 2
 2094.82617188 0 2041.12207031 169.739257812 2035 192.278320312 c 1
 1982.13085938 68.173828125 1898.09098466 -2.50119958662e-14 1693.85253906 0 c 2
 1333.50488281 0 l 2
 1250.02636719 0.064453125 1176.56542969 38.677734375 1128.1484375 99.060546875 c 1
 1128.1484375 99.060546875 1153.19140625 -429.079101562 643.139648438 -429.079101562 c 0
 96.634765625 -429.079101562 8.1484375 77.634765625 206.826171875 413.216796875 c 1
 371.278320312 413.216796875 l 1
 217.122070312 107.96484375 429.434570312 13.078125 623.104492188 13.078125 c 0
 906.374023438 13.078125 993.748046875 143.860351562 917.504882812 246.817382812 c 2
 797.017578125 409.877929688 l 1
 1077.50488281 632.764648438 l 1
 1077.50488281 632.764648438 1119.79980469 437.982421875 1233.33105469 437.982421875 c 0
 1374.96582031 437.982421875 1598.96582031 823.095703125 1886.6875 823.095703125 c 0
 2127.66113281 823.095703125 2141.29589844 616.779296875 2104.84375 436.1875 c 1
1452.04394531 436.1875 m 1
 1905.05273438 436.1875 l 1
 1905.05273438 436.1875 1866.93066406 629.022460938 1743.93945312 629.022460938 c 0
 1629.85253906 629.022460938 1452.04394531 436.1875 1452.04394531 436.1875 c 1
EndSplineSet
Colour: ff0000
EndChar
StartChar: aSad.init
Encoding: 305 -1 49
Width: 1421
Flags: HW
LayerCount: 2
Back
SplineSet
1022 584 m 0,0,1
 1080 584 1080 584 1172 517 c 128,-1,2
 1264 450 1264 450 1251 381 c 128,-1,3
 1238 312 1238 312 1185 216.5 c 128,-1,4
 1132 121 1132 121 1110 105 c 0,5,6
 922 -32 922 -32 617 -32 c 1,7,8
 496 -31 496 -31 391 -2 c 1,9,10
 375 -22 375 -22 335 -169 c 1,11,12
 328 -199 328 -199 295 -187.5 c 128,-1,13
 262 -176 262 -176 266 -143 c 0,14,15
 277 -70 277 -70 317 26 c 1,16,17
 210 72 210 72 149 145 c 0,18,19
 127 172 127 172 114.5 172 c 128,-1,20
 102 172 102 172 90 143 c 0,21,22
 31 0 31 0 -50 0 c 0,23,24
 -62 0 -62 0 -73 23 c 0,25,26
 -105 97 -105 97 -90 138 c 128,-1,27
 -75 179 -75 179 -50 185 c 0,28,29
 56 211 56 211 128 342 c 0,30,31
 143 370 143 370 172 369.5 c 128,-1,32
 201 369 201 369 220 337 c 0,33,34
 283 236 283 236 437 191 c 1,35,36
 525 289 525 289 609 363 c 0,37,38
 862 582 862 582 1022 584 c 0,0,1
1111 272 m 0,39,40
 994 378 994 378 849 367 c 0,41,42
 792 362 792 362 677.5 287 c 128,-1,43
 563 212 563 212 522 170 c 1,44,45
 640 152 640 152 853.5 176 c 128,-1,46
 1067 200 1067 200 1110 252 c 1,47,48
 1123 261 1123 261 1111 272 c 0,39,40
EndSplineSet
Fore
SplineSet
1077.79101562 822.817382812 m 4
 1339.078125 822.817382812 1333.39453125 580.412109375 1286.48730469 391.512695312 c 4
 1224.99121094 143.860351562 1180.98535156 -0 885.234375 0 c 6
 567.4609375 0 l 6
 445.323242188 -0.2138671875 343.739257812 82.365234375 312.017578125 194.225585938 c 5
 280.295898438 82.365234375 178.452148438 0 56.57421875 0 c 6
 -50 0 l 5
 -50 436.1875 l 5
 175.391601562 436.1875 l 6
 222.086914062 436.098632812 238 455.791015625 238 478.608398438 c 6
 238 594.921875 l 5
 384.921875 594.921875 l 5
 384.921875 478.608398438 l 6
 384.921875 457.4609375 402.73046875 436.590820312 431.391601562 436.590820312 c 4
 536.017578125 436.590820312 800.365234375 822.817382812 1077.79101562 822.817382812 c 4
1096.43457031 436.1875 m 5
 1096.43457031 436.1875 1061.09570312 629.021484375 935.321289062 629.021484375 c 4
 821.234375 629.021484375 643.42578125 436.1875 643.42578125 436.1875 c 5
 1096.43457031 436.1875 l 5
EndSplineSet
Colour: ff0000
EndChar
StartChar: aSad.isol
Encoding: 306 -1 50
Width: 2229
Flags: HW
LayerCount: 2
Back
SplineSet
1750.56152344 805 m 0,0,1
 1905.56152344 807 1905.56152344 807 1973.56152344 625 c 1,2,3
 1988.56152344 571 1988.56152344 571 1943.06152344 481.5 c 128,-1,4
 1897.56152344 392 1897.56152344 392 1870.56152344 362 c 0,5,6
 1724.56152344 200 1724.56152344 200 1320.56152344 166 c 0,7,8
 1093.56152344 147 1093.56152344 147 906.561523438 190 c 1,9,10
 865.561523438 -141 865.561523438 -141 775.561523438 -234 c 0,11,12
 569.561523438 -446 569.561523438 -446 234.561523438 -468 c 0,13,14
 -133.438476562 -492 -133.438476562 -492 -231.438476562 -196 c 0,15,16
 -256.438476562 -118 -256.438476562 -118 -242.438476562 -15 c 0,17,18
 -217.438476562 166 -217.438476562 166 -130.438476562 324 c 0,19,20
 -94.4384765625 390 -94.4384765625 390 -62.4384765625 430 c 0,21,22
 -52.4384765625 442 -52.4384765625 442 -39.9384765625 439.5 c 128,-1,23
 -27.4384765625 437 -27.4384765625 437 -23.9384765625 425.5 c 128,-1,24
 -20.4384765625 414 -20.4384765625 414 -27.4384765625 401 c 1,25,26
 -59.4384765625 358 -59.4384765625 358 -84.4384765625 297 c 0,27,28
 -148.438476562 140 -148.438476562 140 -129.438476562 20 c 1,29,30
 -82.4384765625 -252 -82.4384765625 -252 212.561523438 -260 c 1,31,32
 476.561523438 -266 476.561523438 -266 705.561523438 -128 c 1,33,34
 782.561523438 -83 782.561523438 -83 818.561523438 7 c 0,35,36
 823.561523438 18 823.561523438 18 820.561523438 36 c 0,37,38
 790.561523438 231 790.561523438 231 715.561523438 335 c 0,39,40
 699.561523438 358 699.561523438 358 704.561523438 371 c 2,41,-1
 767.561523438 539 l 1,42,43
 785.561523438 574 785.561523438 574 803.561523438 544 c 2,44,-1
 879.561523438 416 l 1,45,46
 951.561523438 372 951.561523438 372 1109.56152344 366 c 1,47,48
 1287.56152344 546 1287.56152344 546 1468.06152344 675 c 128,-1,49
 1648.56152344 804 1648.56152344 804 1750.56152344 805 c 0,0,1
1852.56152344 502 m 1,50,51
 1726.56152344 618 1726.56152344 618 1583.06152344 580.5 c 128,-1,52
 1439.56152344 543 1439.56152344 543 1206.56152344 365 c 1,53,54
 1637.56152344 340 1637.56152344 340 1852.56152344 502 c 1,50,51
EndSplineSet
Fore
SplineSet
1886.38574219 823.260742188 m 4
 2147.36035156 823.260742188 2141.7265625 580.798828125 2094.77246094 391.999023438 c 4
 2033.24023438 144.440429688 1989.32714844 -3.62208425954e-14 1693.56152344 0 c 6
 1333.22265625 0 l 6
 1249.86816406 0 1176.62011719 39.2626953125 1128.05566406 99.54296875 c 5
 1128.05566406 99.54296875 1153.27734375 -428.578125 643.22265625 -428.578125 c 4
 96.7666015625 -428.578125 8.2255859375 77.8994140625 206.952148438 413.375 c 5
 371.514648438 413.375 l 5
 217.595703125 108.307617188 429.827148438 13.416015625 623.3671875 13.416015625 c 4
 906.43359375 13.416015625 993.901367188 144.350585938 917.612304688 247.202148438 c 6
 797.052734375 410.155273438 l 5
 1077.52441406 632.940429688 l 5
 1077.52441406 632.940429688 1119.91699219 438.327148438 1233.32226562 438.327148438 c 4
 1374.81054688 438.327148438 1598.66992188 823.260742188 1886.38574219 823.260742188 c 4
1743.64550781 629.005859375 m 4
 1629.79296875 629.005859375 1451.90429688 436.180664062 1451.90429688 436.180664062 c 5
 1904.80957031 436.180664062 l 5
 1904.80957031 436.180664062 1869.48242188 629.005859375 1743.64550781 629.005859375 c 4
EndSplineSet
Colour: ff0000
EndChar
StartChar: aSad.medi
Encoding: 307 -1 51
Width: 1589
Flags: HW
LayerCount: 2
Back
SplineSet
1385.87792969 394 m 0,0,1
 1231.87792969 548 1231.87792969 548 962.877929688 370 c 0,2,3
 828.877929688 281 828.877929688 281 760.877929688 180 c 1,4,5
 915.877929688 174 915.877929688 174 1131.87792969 240 c 0,6,7
 1270.87792969 283 1270.87792969 283 1386.87792969 371 c 0,8,9
 1399.87792969 381 1399.87792969 381 1385.87792969 394 c 0,0,1
639.877929688 22 m 1,10,11
 607.877929688 -69 607.877929688 -69 601.377929688 -110.5 c 128,-1,12
 594.877929688 -152 594.877929688 -152 574.377929688 -162 c 128,-1,13
 553.877929688 -172 553.877929688 -172 536.877929688 -159 c 0,14,15
 504.877929688 -134 504.877929688 -134 567.877929688 46 c 1,16,17
 503.877929688 65 503.877929688 65 461.877929688 94.5 c 128,-1,18
 419.877929688 124 419.877929688 124 378.877929688 177 c 1,19,20
 269.877929688 10 269.877929688 10 159.877929688 0 c 0,21,22
 135.877929688 -2 135.877929688 -2 124.877929688 34 c 0,23,24
 100.877929688 109 100.877929688 109 127.877929688 161 c 0,25,26
 141.877929688 188 141.877929688 188 159.877929688 185 c 0,27,28
 253.877929688 169 253.877929688 169 378.877929688 321 c 0,29,30
 393.877929688 339 393.877929688 339 407.877929688 333.5 c 128,-1,31
 421.877929688 328 421.877929688 328 442.877929688 305 c 0,32,33
 535.877929688 202 535.877929688 202 666.877929688 192 c 1,34,35
 784.877929688 370 784.877929688 370 963.377929688 511.5 c 128,-1,36
 1141.87792969 653 1141.87792969 653 1257.87792969 680 c 1,37,38
 1338.87792969 697 1338.87792969 697 1431.37792969 640.5 c 128,-1,39
 1523.87792969 584 1523.87792969 584 1541.87792969 509 c 1,40,41
 1505.87792969 340 1505.87792969 340 1424.87792969 233 c 1,42,43
 1546.87792969 189 1546.87792969 189 1638.87792969 185 c 0,44,45
 1657.87792969 184 1657.87792969 184 1661.87792969 134 c 0,46,47
 1673.87792969 3 1673.87792969 3 1638.87792969 0 c 0,48,49
 1479.87792969 -16 1479.87792969 -16 1242.87792969 104 c 1,50,51
 943.877929688 -46 943.877929688 -46 639.877929688 22 c 1,10,11
EndSplineSet
Fore
SplineSet
1296.50390625 436.1875 m 1
 1639.87792969 436.1875 l 1
 1639.87792969 0 l 1
 1487.94726562 0 l 2
 1291.21679688 0 1234.45214844 156.661132812 1224.71289062 188.661132812 c 1
 1171.84277344 67.060546875 1087.19628906 -0 885.234375 0 c 2
 567.4609375 0 l 2
 445.327148438 -0.2138671875 343.739257812 82.365234375 312.017578125 194.225585938 c 1
 280.294921875 82.365234375 178.452148438 0 56.5732421875 0 c 2
 -50 0 l 1
 -50 436.1875 l 1
 175.947265625 436.1875 l 2
 222.693359375 436.098632812 238.556640625 455.791015625 238.556640625 478.608398438 c 2
 238.556640625 594.921875 l 1
 385.477539062 594.921875 l 1
 385.477539062 478.608398438 l 2
 385.477539062 457.4609375 403.287109375 436.590820312 431.947265625 436.590820312 c 0
 536.573242188 436.590820312 800.921875 822.817382812 1078.34765625 822.817382812 c 0
 1319.32128906 822.817382812 1332.95605469 616.778320312 1296.50390625 436.1875 c 1
643.704101562 436.1875 m 1
 1096.71289062 436.1875 l 1
 1096.71289062 436.1875 1061.37402344 629.021484375 935.599609375 629.021484375 c 0
 821.512695312 629.021484375 643.704101562 436.1875 643.704101562 436.1875 c 1
EndSplineSet
Colour: ff0000
EndChar
StartChar: aSen.isol
Encoding: 310 -1 54
Width: 1975
Flags: HW
LayerCount: 2
Back
SplineSet
1735.00390625 744 m 2,0,1
 1740.00390625 764 1740.00390625 764 1756.00390625 764.5 c 128,-1,2
 1772.00390625 765 1772.00390625 765 1782.00390625 748 c 0,3,4
 1809.00390625 703 1809.00390625 703 1809.00390625 609 c 0,5,6
 1809.00390625 459 1809.00390625 459 1737.00390625 342 c 0,7,8
 1718.00390625 311 1718.00390625 311 1687.00390625 304 c 0,9,10
 1591.00390625 285 1591.00390625 285 1465.00390625 362 c 1,11,12
 1373.00390625 198 1373.00390625 198 1200.00390625 222 c 1,13,14
 1190.00390625 46 1190.00390625 46 1147.00390625 -82 c 128,-1,15
 1104.00390625 -210 1104.00390625 -210 996.00390625 -295 c 0,16,17
 761.00390625 -478 761.00390625 -478 478.00390625 -471 c 0,18,19
 128.00390625 -462 128.00390625 -462 46.00390625 -178 c 0,20,21
 23.00390625 -98 23.00390625 -98 53.50390625 51 c 128,-1,22
 84.00390625 200 84.00390625 200 178.00390625 374 c 0,23,24
 185.00390625 387 185.00390625 387 197.50390625 388 c 128,-1,25
 210.00390625 389 210.00390625 389 216.00390625 379 c 128,-1,26
 222.00390625 369 222.00390625 369 216.00390625 356 c 0,27,28
 88.00390625 106 88.00390625 106 112.00390625 22 c 0,29,30
 187.00390625 -245 187.00390625 -245 498.00390625 -253 c 0,31,32
 923.00390625 -264 923.00390625 -264 1105.00390625 21 c 1,33,34
 1116.00390625 178 1116.00390625 178 1024.00390625 376 c 1,35,36
 1013.00390625 397 1013.00390625 397 1019.00390625 410 c 0,37,38
 1063.00390625 504 1063.00390625 504 1092.00390625 548 c 0,39,40
 1100.00390625 560 1100.00390625 560 1110.50390625 551 c 128,-1,41
 1121.00390625 542 1121.00390625 542 1154.50390625 485 c 128,-1,42
 1188.00390625 428 1188.00390625 428 1205.00390625 424 c 0,43,44
 1310.00390625 401 1310.00390625 401 1417.00390625 488 c 0,45,46
 1458.00390625 522 1458.00390625 522 1494.00390625 675 c 0,47,48
 1498.00390625 692 1498.00390625 692 1510.00390625 697 c 128,-1,49
 1522.00390625 702 1522.00390625 702 1532.00390625 696 c 0,50,51
 1552.00390625 682 1552.00390625 682 1534.00390625 578 c 1,52,53
 1616.00390625 518 1616.00390625 518 1716.00390625 528 c 1,54,55
 1717.00390625 559 1717.00390625 559 1706.00390625 572 c 128,-1,56
 1695.00390625 585 1695.00390625 585 1698.00390625 596 c 2,57,-1
 1735.00390625 744 l 2,0,1
EndSplineSet
Fore
SplineSet
1864.28222656 579.278320312 m 4
 1864.28222656 498.16015625 1864.99804688 299.879882812 1865.08789062 299.790039062 c 4
 1865.08789062 190.41015625 1807.84863281 32.0185546875 1632.10644531 32.0185546875 c 4
 1430.24804688 32.0185546875 1421.84179688 194.791992188 1421.84179688 194.791992188 c 5
 1421.84179688 194.791992188 1408.42578125 0 1252.00195312 0 c 4
 1161.671875 0 1127.50683594 50.3525390625 1127.50683594 50.3525390625 c 5
 1127.50683594 50.3525390625 1127.68554688 -428.489257812 642.672851562 -428.489257812 c 4
 98.9013671875 -428.489257812 7.67578125 77.98828125 206.403320312 413.463867188 c 5
 370.965820312 413.463867188 l 5
 216.95703125 108.307617188 429.278320312 13.5048828125 622.818359375 13.5048828125 c 4
 905.883789062 13.5048828125 993.352539062 144.439453125 917.063476562 247.291015625 c 6
 796.50390625 410.244140625 l 5
 1076.97558594 632.940429688 l 5
 1076.97558594 632.940429688 1103.71679688 436.26953125 1262.28710938 436.26953125 c 4
 1372.3828125 436.26953125 1347.87792969 595.287109375 1347.87792969 595.287109375 c 5
 1495 595.287109375 l 5
 1495 595.287109375 1477.91796875 436.716796875 1575.31445312 436.716796875 c 4
 1758.03222656 436.716796875 1628.17089844 630.793945312 1577.19238281 668.536132812 c 5
 1776.1875 825.048828125 l 5
 1776.1875 825.048828125 1864.28222656 708.245117188 1864.28222656 579.278320312 c 4
EndSplineSet
Colour: ff0000
EndChar
StartChar: aYaa.fina
Encoding: 318 -1 62
Width: 1374
Flags: HW
LayerCount: 2
Back
SplineSet
78.890625 -237 m 0,0,1
 85.890625 -136 85.890625 -136 130.890625 -12.5 c 128,-1,2
 175.890625 111 175.890625 111 221.890625 173 c 0,3,4
 235.890625 192 235.890625 192 254.390625 182 c 128,-1,5
 272.890625 172 272.890625 172 258.890625 147 c 0,6,7
 97.890625 -146 97.890625 -146 174.890625 -298 c 0,8,9
 285.890625 -518 285.890625 -518 589.890625 -504 c 0,10,11
 942.890625 -488 942.890625 -488 1205.890625 -268 c 1,12,13
 1228.890625 -237 1228.890625 -237 1169.390625 -222.5 c 128,-1,14
 1109.890625 -208 1109.890625 -208 987.390625 -199.5 c 128,-1,15
 864.890625 -191 864.890625 -191 851.890625 -183 c 0,16,17
 750.890625 -128 750.890625 -128 825.890625 -12 c 1,18,19
 915.890625 122 915.890625 122 1146.890625 185 c 0,20,21
 1208.890625 202 1208.890625 202 1197.890625 118 c 0,22,23
 1182.890625 0 1182.890625 0 1146.890625 0 c 0,24,25
 949.890625 0 949.890625 0 945.890625 -54 c 1,26,27
 1198.890625 -63 1198.890625 -63 1277.890625 -125 c 0,28,29
 1307.890625 -149 1307.890625 -149 1318.390625 -185.5 c 128,-1,30
 1328.890625 -222 1328.890625 -222 1299.390625 -298 c 128,-1,31
 1269.890625 -374 1269.890625 -374 1241.890625 -403 c 0,32,33
 979.890625 -679 979.890625 -679 576.890625 -697 c 0,34,35
 326.890625 -708 326.890625 -708 179.890625 -574 c 0,36,37
 62.890625 -466 62.890625 -466 78.890625 -237 c 0,0,1
EndSplineSet
Fore
SplineSet
1424.890625 0 m 5
 1244.29980469 0 l 5
 1244.29980469 -160.556640625 l 6
 1244.29980469 -376.208007812 1069.55175781 -550.956054688 853.899414062 -550.956054688 c 6
 656.890625 -550.956054688 l 6
 102.317382812 -550.956054688 2.7001953125 -75.96484375 209.725585938 267.965820312 c 5
 374.177734375 267.965820312 l 5
 220.578125 -31.7216796875 427.326171875 -130.782226562 620.995117188 -130.782226562 c 6
 620.995117188 -130.782226562 882.560546875 -130.50390625 883.395507812 -130.50390625 c 4
 1023.91699219 -130.50390625 1067.32617188 -56.7646484375 1068.71679688 0 c 5
 672.1953125 0 l 5
 672.1953125 78.19140625 l 6
 672.1953125 203.965820312 710.874023438 436.1875 990.248046875 436.1875 c 6
 1424.890625 436.1875 l 5
 1424.890625 0 l 5
EndSplineSet
Colour: ff0000
EndChar
StartChar: aYaa.isol
Encoding: 319 -1 63
Width: 1354
Flags: HW
LayerCount: 2
Back
SplineSet
1313.74121094 590 m 0,0,1
 1190.74121094 656 1190.74121094 656 1001.74121094 550 c 0,2,3
 878.741210938 480 878.741210938 480 831.741210938 347 c 0,4,5
 822.741210938 321 822.741210938 321 835.741210938 293 c 0,6,7
 878.741210938 194 878.741210938 194 1097.74121094 182 c 128,-1,8
 1316.74121094 170 1316.74121094 170 1326.74121094 91 c 0,9,10
 1346.74121094 -70 1346.74121094 -70 1234.74121094 -160 c 0,11,12
 939.741210938 -397 939.741210938 -397 564.741210938 -411 c 0,13,14
 114.741210938 -428 114.741210938 -428 69.7412109375 -79 c 0,15,16
 48.7412109375 80 48.7412109375 80 147.741210938 296 c 0,17,18
 201.741210938 412 201.741210938 412 276.741210938 504 c 0,19,20
 296.741210938 528 296.741210938 528 308.741210938 508 c 128,-1,21
 320.741210938 488 320.741210938 488 307.741210938 471 c 0,22,23
 105.741210938 186 105.741210938 186 175.741210938 8 c 0,24,25
 266.741210938 -224 266.741210938 -224 586.741210938 -218 c 0,26,27
 976.741210938 -211 976.741210938 -211 1216.74121094 -19 c 0,28,29
 1236.74121094 -3 1236.74121094 -3 1219.74121094 11 c 0,30,31
 1186.74121094 40 1186.74121094 40 986.741210938 52 c 128,-1,32
 786.741210938 64 786.741210938 64 755.241210938 153.5 c 128,-1,33
 723.741210938 243 723.741210938 243 760.741210938 356 c 0,34,35
 833.741210938 578 833.741210938 578 1048.74121094 732 c 0,36,37
 1157.74121094 811 1157.74121094 811 1234.74121094 816 c 0,38,39
 1419.74121094 828 1419.74121094 828 1365.74121094 624 c 0,40,41
 1350.74121094 570 1350.74121094 570 1313.74121094 590 c 0,0,1
EndSplineSet
Fore
SplineSet
1243.81738281 437.1640625 m 6
 1244.08496094 100.793945312 l 6
 1244.26464844 -116.177734375 1068.43261719 -292.099609375 851.459960938 -292.099609375 c 6
 656.936523438 -292.099609375 l 6
 102.431640625 -292.099609375 2.62109375 182.717773438 209.755859375 526.599609375 c 5
 374.318359375 526.599609375 l 5
 220.577148438 227.16796875 427.443359375 127.982421875 620.983398438 127.982421875 c 6
 620.983398438 127.982421875 882.583984375 128.162109375 883.388671875 128.162109375 c 4
 1023.71484375 128.162109375 1067.18066406 201.857421875 1068.52246094 258.559570312 c 5
 726.25 258.559570312 l 6
 632.430664062 258.559570312 556.41015625 334.580078125 556.41015625 428.399414062 c 6
 555.962890625 797.234375 l 6
 555.874023438 930.315429688 663.64453125 1038.35449219 796.725585938 1038.35449219 c 6
 1093.02734375 1038.44335938 l 5
 1093.02734375 945.4296875 l 5
 1093.02734375 945.4296875 904.227539062 863.05859375 801.823242188 695.90234375 c 5
 984.899414062 695.90234375 l 6
 1127.81835938 695.90234375 1243.72753906 580.083007812 1243.81738281 437.1640625 c 6
EndSplineSet
Colour: ff0000
EndChar
StartChar: four.small
Encoding: 6301 -1 6044
Width: 1233
VWidth: -35
Flags: HW
LayerCount: 2
Back
SplineSet
917.200195312 -31 m 1,0,1
 908.200195312 -45 908.200195312 -45 857.700195312 -45 c 128,-1,2
 807.200195312 -45 807.200195312 -45 802.200195312 -40 c 128,-1,3
 797.200195312 -35 797.200195312 -35 797.200195312 -29 c 2,4,-1
 797.200195312 159 l 1,5,6
 796.200195312 163 796.200195312 163 787.200195312 163 c 2,7,-1
 505.200195312 163 l 1,8,9
 491.200195312 180 491.200195312 180 487.200195312 237 c 1,10,11
 556.200195312 320 556.200195312 320 678.200195312 479.5 c 128,-1,12
 800.200195312 639 800.200195312 639 871.200195312 721 c 1,13,14
 885.200195312 735 885.200195312 735 901.200195312 735 c 128,-1,15
 917.200195312 735 917.200195312 735 917.200195312 723 c 2,16,-1
 917.200195312 255 l 2,17,18
 917.200195312 250 917.200195312 250 929.200195312 247 c 1,19,-1
 1001.20019531 247 l 2,20,21
 1019.20019531 247 1019.20019531 247 1019.20019531 179 c 0,22,23
 1019.20019531 171 1019.20019531 171 1007.20019531 163 c 1,24,-1
 925.200195312 163 l 2,25,26
 917.200195312 163 917.200195312 163 917.200195312 155 c 2,27,-1
 917.200195312 -31 l 1,0,1
797.200195312 255 m 1,1,-1
 797.200195312 519 l 2,29,30
 797.200195312 529 797.200195312 529 795.200195312 529 c 128,-1,31
 793.200195312 529 793.200195312 529 791.200195312 527 c 2,32,-1
 579.200195312 261 l 2,33,34
 577.200195312 259 577.200195312 259 577.200195312 257 c 0,35,36
 577.200195312 247 577.200195312 247 587.200195312 247 c 2,37,-1
 787.200195312 247 l 1,38,39
 788.200195312 248 788.200195312 248 792.200195312 248.5 c 128,-1,40
 796.200195312 249 796.200195312 249 797.200195312 255 c 1,1,-1
EndSplineSet
Fore
SplineSet
1123.98339844 518.122070312 m 1
 1123.98339844 321.948242188 l 1
 993.200195312 321.948242188 l 1
 993.200195312 0 l 1
 608.086914062 0 l 1
 608.086914062 321.669921875 l 1
 110 321.669921875 l 1
 110 519.235351562 l 1
 651.217773438 1288.90429688 l 1
 993.200195312 1288.90429688 l 1
 993.200195312 518.122070312 l 1
 1123.98339844 518.122070312 l 1
355.426757812 518.122070312 m 1
 608.086914062 518.122070312 l 1
 608.086914062 877.078125 l 1
 355.426757812 518.122070312 l 1
EndSplineSet
Colour: ff0000
EndChar
StartChar: hamza.kaf
Encoding: 458 -1 201
Width: 316
GlyphClass: 4
Flags: HW
LayerCount: 2
Back
SplineSet
358.803710938 554 m 1,0,1
 366.803710938 554 366.803710938 554 370.803710938 547 c 128,-1,2
 374.803710938 540 374.803710938 540 371.803710938 532 c 2,3,-1
 327.803710938 424 l 2,4,5
 317.803710938 398 317.803710938 398 305.803710938 395 c 0,6,7
 248.803710938 383 248.803710938 383 224.803710938 352 c 0,8,9
 212.803710938 337 212.803710938 337 254.803710938 320 c 128,-1,10
 296.803710938 303 296.803710938 303 358.803710938 294 c 0,11,12
 499.803710938 274 499.803710938 274 354.803710938 72 c 0,13,14
 309.803710938 10 309.803710938 10 269.303710938 -1 c 128,-1,15
 228.803710938 -12 228.803710938 -12 125.803710938 -1.5 c 128,-1,16
 22.8037109375 9 22.8037109375 9 -39.1962890625 32 c 0,17,18
 -61.1962890625 40 -61.1962890625 40 -61.1962890625 58.5 c 128,-1,19
 -61.1962890625 77 -61.1962890625 77 -41.1962890625 78 c 0,20,21
 10.8037109375 81 10.8037109375 81 96.8037109375 83 c 0,22,23
 262.803710938 87 262.803710938 87 297.803710938 106 c 0,24,25
 306.803710938 111 306.803710938 111 302.303710938 120 c 128,-1,26
 297.803710938 129 297.803710938 129 284.803710938 131 c 1,27,-1
 225.803710938 145 l 2,28,29
 176.803710938 156 176.803710938 156 148.803710938 186.5 c 128,-1,30
 120.803710938 217 120.803710938 217 128.803710938 252 c 0,31,32
 189.803710938 509 189.803710938 509 358.803710938 554 c 1,0,1
EndSplineSet
Fore
SplineSet
74.7685546875 0 m 1
 0 99.005859375 l 1
 259.6328125 99.453125 l 1
 259.6328125 99.453125 259.185546875 141.48828125 215.451171875 141.48828125 c 2
 137.731445312 141.48828125 l 2
 85.0537109375 141.48828125 77.1826171875 168.229492188 77.1826171875 184.149414062 c 2
 77.1826171875 242.55078125 l 1
 262.852539062 303.189453125 l 1
 262.852539062 226.720703125 l 1
 181.5546875 199.890625 l 1
 253.551757812 201.947265625 316.24609375 186.295898438 316.24609375 77.2734375 c 2
 316.067382812 68.240234375 l 2
 316.067382812 35.4169921875 296.927734375 0 254.803710938 0 c 2
 74.7685546875 0 l 1
EndSplineSet
Colour: ff0000
EndChar
StartChar: one.small
Encoding: 6298 -1 6041
Width: 845
Flags: HW
LayerCount: 2
Back
SplineSet
333.704101562 535 m 1,0,1
 326.704101562 539 326.704101562 539 319.204101562 555.5 c 128,-1,2
 311.704101562 572 311.704101562 572 311.704101562 578.5 c 128,-1,3
 311.704101562 585 311.704101562 585 315.704101562 587 c 0,4,5
 408.704101562 640 408.704101562 640 482.704101562 686.5 c 128,-1,6
 556.704101562 733 556.704101562 733 557.704101562 733 c 2,7,-1
 561.704101562 733 l 2,8,9
 569.704101562 733 569.704101562 733 577.704101562 699 c 1,10,11
 563.704101562 659 563.704101562 659 563.704101562 589 c 2,12,-1
 563.704101562 105 l 2,13,14
 563.704101562 33 563.704101562 33 579.704101562 25 c 0,15,16
 619.704101562 5 619.704101562 5 649.704101562 5 c 0,17,18
 657.704101562 5 657.704101562 5 657.704101562 -15 c 128,-1,19
 657.704101562 -35 657.704101562 -35 653.704101562 -43 c 1,20,21
 545.704101562 -35 545.704101562 -35 502.704101562 -35 c 128,-1,22
 459.704101562 -35 459.704101562 -35 351.704101562 -43 c 1,23,24
 345.704101562 -37 345.704101562 -37 345.704101562 -16 c 128,-1,25
 345.704101562 5 345.704101562 5 351.704101562 5 c 0,26,27
 387.704101562 5 387.704101562 5 427.704101562 25 c 0,28,29
 443.704101562 33 443.704101562 33 443.704101562 97 c 2,30,-1
 443.704101562 499 l 2,31,32
 443.704101562 561 443.704101562 561 438.704101562 567 c 128,-1,33
 433.704101562 573 433.704101562 573 418.704101562 573 c 128,-1,34
 403.704101562 573 403.704101562 573 333.704101562 535 c 1,0,1
EndSplineSet
Fore
SplineSet
510.086914062 1289.49121094 m 1
 705.704101562 1289.49121094 l 1
 705.704101562 0 l 1
 320.591796875 0 l 1
 320.591796875 897.947265625 l 1
 140 897.947265625 l 1
 140 1092.45214844 l 1
 140 1092.45214844 436.069335938 1107.78710938 510.086914062 1289.49121094 c 1
EndSplineSet
Colour: ff0000
EndChar
StartChar: ring.below
Encoding: 470 -1 213
Width: 0
GlyphClass: 4
Flags: HW
LayerCount: 2
Back
SplineSet
143 -166 m 0,0,1
 144 -218 144 -218 136 -250 c 0,2,3
 108 -353 108 -353 -20 -348 c 0,4,5
 -142 -344 -142 -344 -129 -205 c 0,6,7
 -115 -66 -115 -66 -49 -16 c 128,-1,8
 17 34 17 34 89 -29 c 1,9,10
 141 -73 141 -73 143 -166 c 0,0,1
102 -217 m 1,11,12
 74 -95 74 -95 0 -92 c 0,13,14
 -46 -90 -46 -90 -68.5 -122 c 128,-1,15
 -91 -154 -91 -154 -84 -199.5 c 128,-1,16
 -77 -245 -77 -245 -10.5 -251 c 128,-1,17
 56 -257 56 -257 94 -229 c 0,18,19
 102 -223 102 -223 102 -217 c 1,11,12
EndSplineSet
Fore
SplineSet
0 17.7646484375 m 4
 99.78515625 17.7646484375 180.590820312 -63.3466796875 180.590820312 -162.826171875 c 4
 180.590820312 -262.3046875 99.4794921875 -343.416992188 0 -343.416992188 c 4
 -99.478515625 -343.416992188 -180.590820312 -262.3046875 -180.590820312 -162.826171875 c 4
 -180.590820312 -63.3466796875 -99.7841796875 17.7646484375 0 17.7646484375 c 4
82.9501953125 -163.1328125 m 4
 82.9501953125 -117.21875 45.607421875 -80.1826171875 0 -80.1826171875 c 4
 -45.607421875 -80.1826171875 -82.94921875 -117.525390625 -82.94921875 -163.1328125 c 4
 -82.94921875 -208.73828125 -45.607421875 -245.775390625 0 -245.775390625 c 4
 45.9130859375 -245.775390625 82.9501953125 -208.73828125 82.9501953125 -163.1328125 c 4
EndSplineSet
Colour: ff0000
EndChar
StartChar: uni0600.4
Encoding: 5923 -1 5666
Width: 4096
Flags: HW
LayerCount: 2
Back
SplineSet
3852 -128 m 1,0,-1
 3793 -114 l 2,1,2
 3693 -90.271484375 3693 -90.271484375 3693 -29 c 0,3,4
 3693 96 3693 96 3802 217 c 0,5,6
 3873 296 3873 296 3933 296 c 0,7,8
 3948.37011719 296 3948.37011719 296 3939 273 c 2,9,-1
 3895 165 l 2,10,11
 3884.45800781 139.125 3884.45800781 139.125 3873 136 c 0,12,13
 3813 120 3813 120 3792 93 c 0,14,15
 3780 78 3780 78 3822 61 c 128,-1,16
 3864 44 3864 44 3930 34.5 c 128,-1,17
 3996 25 3996 25 3996 -30 c 128,-1,18
 3996 -85 3996 -85 3937 -164 c 0,19,20
 3809 -335 3809 -335 2725 -335 c 0,21,22
 385 -335 385 -335 299 -300 c 0,23,24
 257.220703125 -283.482421875 257.220703125 -283.482421875 226 -249 c 2,25,-1
 159 -175 l 2,26,27
 148 -162.850585938 148 -162.850585938 148 -154.42578125 c 128,-1,28
 148 -146 148 -146 182 -152 c 0,29,30
 409 -192 409 -192 2715 -192 c 0,31,32
 3761 -192 3761 -192 3852 -128 c 1,0,-1
EndSplineSet
Fore
SplineSet
3985.73242188 437.174804688 m 2
 3986 100.8046875 l 2
 3986.1796875 -116.166992188 3810.34765625 -292.088867188 3593.375 -292.088867188 c 2
 348 -292.088867188 l 2
 110 144.098632812 l 2
 110 144.098632812 3624.49902344 144 3625.30371094 144 c 0
 3765.62988281 144 3809.09570312 201.868164062 3810.4375 258.5703125 c 1
 3468.16503906 258.5703125 l 2
 3374.34570312 258.5703125 3298.32519531 334.590820312 3298.32519531 428.41015625 c 2
 3297.87792969 797.245117188 l 2
 3297.7890625 930.326171875 3405.55957031 1038.36523438 3538.640625 1038.36523438 c 2
 3834.94238281 1038.45410156 l 1
 3834.94238281 945.440429688 l 1
 3834.94238281 945.440429688 3646.14257812 863.069335938 3543.73828125 695.913085938 c 1
 3726.81445312 695.913085938 l 2
 3869.73339844 695.913085938 3985.64257812 580.09375 3985.73242188 437.174804688 c 2
3816.60644531 42.0693359375 m 1024
EndSplineSet
Colour: ff0000
EndChar
StartChar: uni0640.2
Encoding: 4875 -1 4618
Width: 714
Flags: HW
LayerCount: 2
Back
SplineSet
360.556640625 -8 m 0,0,1
 184.556640625 -8 184.556640625 -8 9.556640625 0 c 0,2,3
 -8.443359375 1 -8.443359375 1 -16.443359375 31 c 2,4,-1
 -42.443359375 120 l 1,5,6
 -59.443359375 187 -59.443359375 187 9.556640625 185 c 0,7,8
 184.556640625 179 184.556640625 179 358.556640625 179 c 0,9,10
 533.556640625 179 533.556640625 179 708.556640625 185 c 0,11,12
 778.556640625 187 778.556640625 187 761.556640625 120 c 1,13,-1
 735.556640625 31 l 2,14,15
 727.556640625 1 727.556640625 1 710.556640625 0 c 0,16,17
 535.556640625 -8 535.556640625 -8 360.556640625 -8 c 0,0,1
EndSplineSet
Fore
SplineSet
-50 0 m 5
 -50 436.1875 l 5
 764.556640625 436.1875 l 5
 764.556640625 0 l 5
 -50 0 l 5
EndSplineSet
Colour: ff0000
EndChar
StartChar: uni0640.3
Encoding: 4876 -1 4619
Width: 1513
Flags: HW
LayerCount: 2
Back
SplineSet
1509.55664062 0 m 0,0,1
 1183.55664062 -26 1183.55664062 -26 759.556640625 -26 c 0,2,3
 321.556640625 -26 321.556640625 -26 9.556640625 0 c 1,4,5
 -8.443359375 0 -8.443359375 0 -16.443359375 31 c 1,6,-1
 -42.443359375 120 l 1,7,8
 -60.443359375 190 -60.443359375 190 9.556640625 185 c 0,9,10
 321.556640625 159 321.556640625 159 759.556640625 159 c 0,11,12
 1183.55664062 159 1183.55664062 159 1509.55664062 185 c 1,13,14
 1578.55664062 189 1578.55664062 189 1561.55664062 120 c 1,15,-1
 1535.55664062 31 l 2,16,17
 1527.55664062 1 1527.55664062 1 1509.55664062 0 c 0,0,1
EndSplineSet
Fore
SplineSet
-50 0 m 5
 -50 436.1875 l 5
 1563.55664062 436.1875 l 5
 1563.55664062 0 l 5
 -50 0 l 5
EndSplineSet
Colour: ff0000
EndChar
StartChar: uni06F4.urd
Encoding: 587 -1 330
Width: 1080
Flags: HW
LayerCount: 2
Back
SplineSet
460.295898438 -171 m 0,0,1
 455.295898438 -188 455.295898438 -188 430.295898438 -188 c 0,2,3
 404.295898438 -188 404.295898438 -188 402.295898438 -161 c 0,4,5
 383.295898438 123 383.295898438 123 233.295898438 533 c 1,6,7
 164.295898438 729 164.295898438 729 224.295898438 929 c 0,8,9
 281.295898438 1120 281.295898438 1120 445.295898438 1127 c 0,10,11
 627.295898438 1135 627.295898438 1135 739.295898438 882 c 1,12,13
 822.295898438 1105 822.295898438 1105 947.295898438 1215 c 0,14,15
 964.295898438 1230 964.295898438 1230 976.295898438 1226 c 0,16,17
 990.295898438 1221 990.295898438 1221 986.295898438 1204 c 2,18,-1
 939.295898438 1031 l 2,19,20
 933.295898438 1009 933.295898438 1009 923.295898438 996 c 0,21,22
 780.295898438 820 780.295898438 820 714.295898438 645 c 1,23,24
 705.295898438 630 705.295898438 630 696.295898438 632 c 0,25,26
 682.295898438 636 682.295898438 636 675.295898438 654 c 0,27,28
 572.295898438 912 572.295898438 912 412.295898438 916 c 0,29,30
 353.295898438 917 353.295898438 917 303.295898438 862 c 0,31,32
 293.295898438 850 293.295898438 850 341.295898438 726 c 0,33,34
 554.295898438 183 554.295898438 183 460.295898438 -171 c 0,0,1
EndSplineSet
Fore
SplineSet
686.556640625 1096.62597656 m 1
 775.87890625 1246.05175781 970.661132812 1289.73925781 970.3828125 1289.4609375 c 2
 970.104492188 987.26953125 l 1
 743.87890625 887.65234375 732.19140625 639.721679688 732.19140625 639.721679688 c 1
 599.739257812 639.721679688 l 1
 599.739257812 639.721679688 598.069335938 751.860351562 520.991210938 867.060546875 c 0
 472.017578125 940.521484375 379.356445312 968.069335938 321.200195312 930.50390625 c 1
 341.513671875 859.547851562 401.338867188 745.182617188 459.49609375 634.712890625 c 0
 491.217773438 574.608398438 520.712890625 517.287109375 545.200195312 466.921875 c 0
 667.078125 216.487304688 600.295898438 0 600.295898438 0 c 1
 423.043945312 0 l 2
 423.322265625 1.11328125 443.634765625 123.547851562 309.235351562 336.6953125 c 0
 249.409179688 431.583007812 110 671.165039062 110 845.634765625 c 0
 110 925.49609375 131.982421875 1013.98242188 173.443359375 1101.35644531 c 0
 231.043945312 1221.84375 312.017578125 1289.73925781 414.139648438 1289.73925781 c 0
 522.939453125 1289.73925781 625.338867188 1231.02636719 686.556640625 1096.62597656 c 1
EndSplineSet
Colour: ff0000
EndChar
